<?xml version="1.0" encoding="UTF-8"?>
<!DOCTYPE svg PUBLIC "-//W3C//DTD SVG 1.1//EN" "http://www.w3.org/Graphics/SVG/1.1/DTD/svg11.dtd">
<svg xmlns="http://www.w3.org/2000/svg" version="1.1" width="350px" height="350px" style="shape-rendering:geometricPrecision; text-rendering:geometricPrecision; image-rendering:optimizeQuality; fill-rule:evenodd; clip-rule:evenodd" xmlns:xlink="http://www.w3.org/1999/xlink">
<g><path style="opacity:0.853" fill="#644a8a" d="M 198.5,87.5 C 198.5,87.1667 198.5,86.8333 198.5,86.5C 210.553,86.1091 222.553,86.6091 234.5,88C 240.031,89.5906 244.698,92.424 248.5,96.5C 243.481,93.9903 238.481,91.4903 233.5,89C 230.183,88.5017 226.85,88.335 223.5,88.5C 215.35,87.5073 207.017,87.1739 198.5,87.5 Z"/></g>
<g><path style="opacity:1" fill="#a543a0" d="M 124.5,89.5 C 125.873,89.3433 127.207,89.51 128.5,90C 126.623,91.1853 124.623,92.1853 122.5,93C 129.506,93.6066 136.506,94.2732 143.5,95C 141.866,95.4935 140.199,95.6602 138.5,95.5C 138.5,96.5 138.5,97.5 138.5,98.5C 134.629,98.185 130.962,98.5184 127.5,99.5C 126.167,99.5 124.833,99.5 123.5,99.5C 120.455,99.4921 117.455,99.1587 114.5,98.5C 114.64,96.8762 113.973,95.7096 112.5,95C 115.109,94.0569 117.109,92.3903 118.5,90C 120.473,89.5045 122.473,89.3379 124.5,89.5 Z"/></g>
<g><path style="opacity:1" fill="#96479a" d="M 175.5,86.5 C 175.5,86.8333 175.5,87.1667 175.5,87.5C 172.813,87.3359 170.146,87.5026 167.5,88C 168.833,89 168.833,90 167.5,91C 158.52,91.7477 158.52,93.4143 167.5,96C 168.252,96.6708 168.586,97.5041 168.5,98.5C 167.833,98.5 167.5,98.8333 167.5,99.5C 154.167,99.5 140.833,99.5 127.5,99.5C 130.962,98.5184 134.629,98.185 138.5,98.5C 146.174,98.6664 153.841,98.4997 161.5,98C 160.833,97.3333 160.167,96.6667 159.5,96C 153.949,95.2789 148.615,93.9456 143.5,92C 147.037,91.855 150.371,91.0216 153.5,89.5C 143.856,88.5016 134.19,88.1682 124.5,88.5C 121.5,88.5 118.5,88.5 115.5,88.5C 116.263,87.7321 117.263,87.2321 118.5,87C 137.497,86.5001 156.497,86.3334 175.5,86.5 Z"/></g>
<g><path style="opacity:1" fill="#8b44a0" d="M 175.5,87.5 C 179.647,88.3247 183.981,88.8247 188.5,89C 181.458,89.7141 181.124,90.7141 187.5,92C 184.623,93.1268 181.623,93.7935 178.5,94C 182.549,96.0981 186.882,97.4314 191.5,98C 183.841,98.4997 176.174,98.6664 168.5,98.5C 168.586,97.5041 168.252,96.6708 167.5,96C 158.52,93.4143 158.52,91.7477 167.5,91C 168.833,90 168.833,89 167.5,88C 170.146,87.5026 172.813,87.3359 175.5,87.5 Z"/></g>
<g><path style="opacity:1" fill="#6b44a3" d="M 223.5,88.5 C 224.429,89.3149 225.429,90.1482 226.5,91C 225.692,91.3076 225.025,91.8076 224.5,92.5C 227.833,93.1667 231.167,93.8333 234.5,94.5C 237.23,97.0331 236.897,99.0331 233.5,100.5C 230.14,100.384 226.807,100.051 223.5,99.5C 222.081,98.5489 220.415,98.2155 218.5,98.5C 218.611,97.8826 218.944,97.3826 219.5,97C 214.432,96.252 213.432,93.9187 216.5,90C 215.5,89.6667 214.5,89.3333 213.5,89C 216.817,88.5017 220.15,88.335 223.5,88.5 Z"/></g>
<g><path style="opacity:1" fill="#7643a1" d="M 198.5,87.5 C 207.017,87.1739 215.35,87.5073 223.5,88.5C 220.15,88.335 216.817,88.5017 213.5,89C 214.5,89.3333 215.5,89.6667 216.5,90C 213.432,93.9187 214.432,96.252 219.5,97C 218.944,97.3826 218.611,97.8826 218.5,98.5C 212.167,98.5 205.833,98.5 199.5,98.5C 199.5,97.5 199.5,96.5 199.5,95.5C 196.996,94.3608 194.33,93.6941 191.5,93.5C 191.579,92.0695 191.246,90.7362 190.5,89.5C 193.422,89.1012 196.422,88.9345 199.5,89C 198.944,88.6174 198.611,88.1174 198.5,87.5 Z"/></g>
<g><path style="opacity:1" fill="#67459c" d="M 223.5,88.5 C 226.85,88.335 230.183,88.5017 233.5,89C 238.481,91.4903 243.481,93.9903 248.5,96.5C 256.855,103.191 262.188,111.858 264.5,122.5C 263.549,123.919 263.216,125.585 263.5,127.5C 262.834,124.642 262.167,121.642 261.5,118.5C 260.833,118.167 260.167,117.833 259.5,117.5C 258.811,114.592 257.645,111.925 256,109.5C 252.799,114.631 251.299,120.298 251.5,126.5C 251.167,126.5 250.833,126.5 250.5,126.5C 248.357,116.526 243.024,108.859 234.5,103.5C 234.737,102.209 234.404,101.209 233.5,100.5C 236.897,99.0331 237.23,97.0331 234.5,94.5C 231.167,93.8333 227.833,93.1667 224.5,92.5C 225.025,91.8076 225.692,91.3076 226.5,91C 225.429,90.1482 224.429,89.3149 223.5,88.5 Z"/></g>
<g><path style="opacity:1" fill="#a7439e" d="M 115.5,88.5 C 118.5,88.5 121.5,88.5 124.5,88.5C 124.5,88.8333 124.5,89.1667 124.5,89.5C 122.473,89.3379 120.473,89.5045 118.5,90C 117.109,92.3903 115.109,94.0569 112.5,95C 113.973,95.7096 114.64,96.8762 114.5,98.5C 117.455,99.1587 120.455,99.4921 123.5,99.5C 123.5,99.8333 123.5,100.167 123.5,100.5C 120.482,100.335 117.482,100.502 114.5,101C 109.452,105.48 104.452,105.48 99.5,101C 99.9031,99.5272 100.57,98.1939 101.5,97C 104.667,95.1667 107.833,93.3333 111,91.5C 111.414,91.9574 111.914,92.2907 112.5,92.5C 113.524,91.1482 114.524,89.8149 115.5,88.5 Z"/></g>
<g><path style="opacity:1" fill="#a1449e" d="M 124.5,89.5 C 124.5,89.1667 124.5,88.8333 124.5,88.5C 134.19,88.1682 143.856,88.5016 153.5,89.5C 150.371,91.0216 147.037,91.855 143.5,92C 148.615,93.9456 153.949,95.2789 159.5,96C 160.167,96.6667 160.833,97.3333 161.5,98C 153.841,98.4997 146.174,98.6664 138.5,98.5C 138.5,97.5 138.5,96.5 138.5,95.5C 140.199,95.6602 141.866,95.4935 143.5,95C 136.506,94.2732 129.506,93.6066 122.5,93C 124.623,92.1853 126.623,91.1853 128.5,90C 127.207,89.51 125.873,89.3433 124.5,89.5 Z"/></g>
<g><path style="opacity:1" fill="#81449f" d="M 175.5,86.5 C 183.167,86.5 190.833,86.5 198.5,86.5C 198.5,86.8333 198.5,87.1667 198.5,87.5C 198.611,88.1174 198.944,88.6174 199.5,89C 196.422,88.9345 193.422,89.1012 190.5,89.5C 191.246,90.7362 191.579,92.0695 191.5,93.5C 194.33,93.6941 196.996,94.3608 199.5,95.5C 199.5,96.5 199.5,97.5 199.5,98.5C 205.833,98.5 212.167,98.5 218.5,98.5C 220.415,98.2155 222.081,98.5489 223.5,99.5C 204.833,99.5 186.167,99.5 167.5,99.5C 167.5,98.8333 167.833,98.5 168.5,98.5C 176.174,98.6664 183.841,98.4997 191.5,98C 186.882,97.4314 182.549,96.0981 178.5,94C 181.623,93.7935 184.623,93.1268 187.5,92C 181.124,90.7141 181.458,89.7141 188.5,89C 183.981,88.8247 179.647,88.3247 175.5,87.5C 175.5,87.1667 175.5,86.8333 175.5,86.5 Z"/></g>
<g><path style="opacity:0.319" fill="#774984" d="M 123.5,100.5 C 123.5,100.167 123.5,99.8333 123.5,99.5C 124.833,99.5 126.167,99.5 127.5,99.5C 140.833,99.5 154.167,99.5 167.5,99.5C 186.167,99.5 204.833,99.5 223.5,99.5C 226.807,100.051 230.14,100.384 233.5,100.5C 234.404,101.209 234.737,102.209 234.5,103.5C 231.946,102.394 229.279,101.561 226.5,101C 192.168,100.5 157.835,100.333 123.5,100.5 Z"/></g>
<g><path style="opacity:1" fill="#a8428e" d="M 115.5,88.5 C 114.524,89.8149 113.524,91.1482 112.5,92.5C 111.914,92.2907 111.414,91.9574 111,91.5C 107.833,93.3333 104.667,95.1667 101.5,97C 100.57,98.1939 99.9031,99.5272 99.5,101C 104.452,105.48 109.452,105.48 114.5,101C 117.482,100.502 120.482,100.335 123.5,100.5C 115.291,102.283 108.624,106.616 103.5,113.5C 102.504,113.586 101.671,113.252 101,112.5C 100.383,113.449 100.549,114.282 101.5,115C 100.207,115.49 98.8734,115.657 97.5,115.5C 95.6814,113.037 94.0147,110.37 92.5,107.5C 93.5186,105.489 94.5186,103.489 95.5,101.5C 95.8588,99.629 96.8588,98.129 98.5,97C 103.38,92.5602 109.046,89.7269 115.5,88.5 Z"/></g>
<g><path style="opacity:1" fill="#854591" d="M 217.5,108.5 C 229.168,107.99 233.668,113.324 231,124.5C 223.92,132.654 217.253,132.321 211,123.5C 210.333,120.5 210.333,117.5 211,114.5C 212.914,112.144 215.081,110.144 217.5,108.5 Z"/></g>
<g><path style="opacity:1" fill="#8f44a0" d="M 219.5,109.5 C 222.745,109.88 225.745,111.047 228.5,113C 227.592,115.232 226.592,117.399 225.5,119.5C 226.167,121.167 226.833,122.833 227.5,124.5C 225.95,126.622 223.95,128.289 221.5,129.5C 219.618,128.469 217.618,127.635 215.5,127C 214.308,125.088 213.308,123.088 212.5,121C 213.682,119.322 214.848,119.488 216,121.5C 217.169,120.991 218.002,120.158 218.5,119C 214.26,115.084 214.594,111.917 219.5,109.5 Z"/></g>
<g><path style="opacity:1" fill="#ba3575" d="M 95.5,101.5 C 94.5186,103.489 93.5186,105.489 92.5,107.5C 94.0147,110.37 95.6814,113.037 97.5,115.5C 98.8734,115.657 100.207,115.49 101.5,115C 100.549,114.282 100.383,113.449 101,112.5C 101.671,113.252 102.504,113.586 103.5,113.5C 102.737,115.368 101.737,117.035 100.5,118.5C 99.0735,120.148 98.2401,122.148 98,124.5C 95.1471,126.5 92.6471,128.833 90.5,131.5C 88.8102,127.409 87.1436,123.409 85.5,119.5C 86.7805,112.265 90.1138,106.265 95.5,101.5 Z"/></g>
<g><path style="opacity:0.998" fill="#b43a5d" d="M 100.5,118.5 C 100.162,120.854 99.662,123.187 99,125.5C 98.5001,141.163 98.3334,156.83 98.5,172.5C 98.1667,172.5 97.8333,172.5 97.5,172.5C 97.5,170.833 97.5,169.167 97.5,167.5C 97.5,162.5 97.5,157.5 97.5,152.5C 97.1279,145.163 96.6279,137.829 96,130.5C 91.5717,136.456 88.5717,135.789 87,128.5C 85.5648,136.389 85.0648,144.389 85.5,152.5C 85.5,156.833 85.5,161.167 85.5,165.5C 85.5,169.167 85.5,172.833 85.5,176.5C 85.5,178.833 85.5,181.167 85.5,183.5C 85.1667,183.5 84.8333,183.5 84.5,183.5C 84.1889,162.121 84.5223,140.788 85.5,119.5C 87.1436,123.409 88.8102,127.409 90.5,131.5C 92.6471,128.833 95.1471,126.5 98,124.5C 98.2401,122.148 99.0735,120.148 100.5,118.5 Z"/></g>
<g><path style="opacity:1" fill="#7f43a1" d="M 263.5,127.5 C 263.666,133.176 263.499,138.843 263,144.5C 260.45,140.99 259.116,136.99 259,132.5C 258.1,134.398 256.934,136.064 255.5,137.5C 254.201,136.91 253.368,135.91 253,134.5C 252.502,137.482 252.335,140.482 252.5,143.5C 251.511,138.025 251.178,132.358 251.5,126.5C 251.299,120.298 252.799,114.631 256,109.5C 257.645,111.925 258.811,114.592 259.5,117.5C 260.167,117.833 260.833,118.167 261.5,118.5C 262.167,121.642 262.834,124.642 263.5,127.5 Z"/></g>
<g><path style="opacity:1" fill="#a842a4" d="M 181.5,132.5 C 184.841,134.607 188.508,136.273 192.5,137.5C 192.376,138.107 192.043,138.44 191.5,138.5C 187.752,136.631 184.752,137.464 182.5,141C 181.5,141.167 180.5,141.333 179.5,141.5C 174.746,140.839 174.412,139.339 178.5,137C 178.167,136.667 177.833,136.333 177.5,136C 174.167,136.333 170.833,136.667 167.5,137C 164.904,135.203 165.237,133.869 168.5,133C 172.821,132.501 177.154,132.334 181.5,132.5 Z"/></g>
<g><path style="opacity:1" fill="#a84294" d="M 165.5,132.5 C 164.718,134.451 163.384,135.951 161.5,137C 163.221,138.527 165.221,139.527 167.5,140C 166.833,141 166.167,142 165.5,143C 172.838,142.264 180.171,142.43 187.5,143.5C 187.433,144.959 187.766,146.292 188.5,147.5C 181.039,144.521 173.372,143.854 165.5,145.5C 163.143,145.663 160.81,145.497 158.5,145C 157.091,140.729 154.425,139.563 150.5,141.5C 150.5,140.167 150.5,138.833 150.5,137.5C 155.35,135.585 160.35,133.918 165.5,132.5 Z"/></g>
<g><path style="opacity:1" fill="#9d4893" d="M 212.5,151.5 C 209.49,150.347 207.49,148.18 206.5,145C 204.975,143.991 203.308,143.491 201.5,143.5C 201.5,142.5 201.5,141.5 201.5,140.5C 199.585,140.216 197.919,140.549 196.5,141.5C 194.011,141.759 192.344,140.759 191.5,138.5C 192.043,138.44 192.376,138.107 192.5,137.5C 188.508,136.273 184.841,134.607 181.5,132.5C 176.297,131.243 170.964,131.243 165.5,132.5C 160.35,133.918 155.35,135.585 150.5,137.5C 154.838,134.099 159.838,131.932 165.5,131C 183.184,128.227 198.017,133.394 210,146.5C 211.094,148.078 211.928,149.745 212.5,151.5 Z"/></g>
<g><path style="opacity:1" fill="#a6439e" d="M 181.5,132.5 C 177.154,132.334 172.821,132.501 168.5,133C 165.237,133.869 164.904,135.203 167.5,137C 170.833,136.667 174.167,136.333 177.5,136C 177.833,136.333 178.167,136.667 178.5,137C 174.412,139.339 174.746,140.839 179.5,141.5C 180.5,141.333 181.5,141.167 182.5,141C 184.752,137.464 187.752,136.631 191.5,138.5C 192.344,140.759 194.011,141.759 196.5,141.5C 196.989,145.277 196.989,149.277 196.5,153.5C 194.092,151.084 191.426,149.084 188.5,147.5C 187.766,146.292 187.433,144.959 187.5,143.5C 180.171,142.43 172.838,142.264 165.5,143C 166.167,142 166.833,141 167.5,140C 165.221,139.527 163.221,138.527 161.5,137C 163.384,135.951 164.718,134.451 165.5,132.5C 170.964,131.243 176.297,131.243 181.5,132.5 Z"/></g>
<g><path style="opacity:1" fill="#c82b56" d="M 97.5,152.5 C 96.6909,150.708 96.1909,148.708 96,146.5C 92.6266,144.742 89.7933,142.409 87.5,139.5C 86.8331,143.982 86.1664,148.316 85.5,152.5C 85.0648,144.389 85.5648,136.389 87,128.5C 88.5717,135.789 91.5717,136.456 96,130.5C 96.6279,137.829 97.1279,145.163 97.5,152.5 Z"/></g>
<g><path style="opacity:1" fill="#af3d82" d="M 150.5,137.5 C 150.5,138.833 150.5,140.167 150.5,141.5C 154.425,139.563 157.091,140.729 158.5,145C 160.81,145.497 163.143,145.663 165.5,145.5C 162.592,146.954 159.592,148.454 156.5,150C 153.964,152.705 151.297,155.205 148.5,157.5C 146.991,155.664 145.491,153.664 144,151.5C 143.51,150.207 143.343,148.873 143.5,147.5C 142.448,147.649 141.448,147.483 140.5,147C 141.252,146.329 141.586,145.496 141.5,144.5C 143.949,141.444 146.949,139.111 150.5,137.5 Z"/></g>
<g><path style="opacity:1" fill="#a643a0" d="M 212.5,151.5 C 212.261,153.467 212.594,155.301 213.5,157C 212.324,158.914 211.324,158.748 210.5,156.5C 209.914,156.709 209.414,157.043 209,157.5C 207.535,153.111 205.701,152.778 203.5,156.5C 201.827,154.914 199.827,154.247 197.5,154.5C 196.833,154.5 196.5,154.167 196.5,153.5C 196.989,149.277 196.989,145.277 196.5,141.5C 197.919,140.549 199.585,140.216 201.5,140.5C 201.5,141.5 201.5,142.5 201.5,143.5C 203.308,143.491 204.975,143.991 206.5,145C 207.49,148.18 209.49,150.347 212.5,151.5 Z"/></g>
<g><path style="opacity:1" fill="#914697" d="M 264.5,122.5 C 264.5,155.833 264.5,189.167 264.5,222.5C 264.167,222.5 263.833,222.5 263.5,222.5C 263.827,212.652 263.494,202.986 262.5,193.5C 262.667,182.162 262.5,170.828 262,159.5C 261.709,155.945 260.375,152.945 258,150.5C 257.517,151.448 257.351,152.448 257.5,153.5C 256.206,152.71 255.039,151.71 254,150.5C 253.667,150.833 253.333,151.167 253,151.5C 252.503,148.854 252.336,146.187 252.5,143.5C 252.335,140.482 252.502,137.482 253,134.5C 253.368,135.91 254.201,136.91 255.5,137.5C 256.934,136.064 258.1,134.398 259,132.5C 259.116,136.99 260.45,140.99 263,144.5C 263.499,138.843 263.666,133.176 263.5,127.5C 263.216,125.585 263.549,123.919 264.5,122.5 Z"/></g>
<g><path style="opacity:0.999" fill="#bd3362" d="M 141.5,144.5 C 141.586,145.496 141.252,146.329 140.5,147C 141.448,147.483 142.448,147.649 143.5,147.5C 143.343,148.873 143.51,150.207 144,151.5C 145.491,153.664 146.991,155.664 148.5,157.5C 145.191,163.372 143.524,169.706 143.5,176.5C 142.532,174.393 142.198,172.059 142.5,169.5C 143.076,165.878 142.076,162.878 139.5,160.5C 138.676,162.748 137.676,162.914 136.5,161C 137.451,160.282 137.617,159.449 137,158.5C 135.644,159.38 134.144,159.714 132.5,159.5C 134.228,153.707 137.228,148.707 141.5,144.5 Z"/></g>
<g><path style="opacity:1" fill="#9e469a" d="M 250.5,126.5 C 250.833,126.5 251.167,126.5 251.5,126.5C 251.178,132.358 251.511,138.025 252.5,143.5C 252.336,146.187 252.503,148.854 253,151.5C 253.333,151.167 253.667,150.833 254,150.5C 255.039,151.71 256.206,152.71 257.5,153.5C 258.765,166.507 258.598,179.507 257,192.5C 256.148,189.623 254.981,186.957 253.5,184.5C 252.506,189.456 252.173,194.456 252.5,199.5C 251.527,201.948 251.194,204.615 251.5,207.5C 251.167,207.5 250.833,207.5 250.5,207.5C 250.5,180.5 250.5,153.5 250.5,126.5 Z"/></g>
<g><path style="opacity:1" fill="#d42c42" d="M 97.5,152.5 C 97.5,157.5 97.5,162.5 97.5,167.5C 95.429,167.498 93.2623,167.831 91,168.5C 90.0853,167.672 89.4186,166.672 89,165.5C 88.0138,166.171 86.8471,166.171 85.5,165.5C 85.5,161.167 85.5,156.833 85.5,152.5C 86.1664,148.316 86.8331,143.982 87.5,139.5C 89.7933,142.409 92.6266,144.742 96,146.5C 96.1909,148.708 96.6909,150.708 97.5,152.5 Z"/></g>
<g><path style="opacity:1" fill="#a5439a" d="M 212.5,151.5 C 214.873,153.579 216.206,156.246 216.5,159.5C 217.042,163.544 216.209,167.211 214,170.5C 213.692,169.692 213.192,169.025 212.5,168.5C 211.109,169.645 209.776,169.645 208.5,168.5C 207.456,166.123 205.79,164.456 203.5,163.5C 201.761,160.365 199.761,157.365 197.5,154.5C 199.827,154.247 201.827,154.914 203.5,156.5C 205.701,152.778 207.535,153.111 209,157.5C 209.414,157.043 209.914,156.709 210.5,156.5C 211.324,158.748 212.324,158.914 213.5,157C 212.594,155.301 212.261,153.467 212.5,151.5 Z"/></g>
<g><path style="opacity:1" fill="#a5439c" d="M 262.5,193.5 C 262.799,195.604 262.466,197.604 261.5,199.5C 259.51,198.127 257.343,197.127 255,196.5C 254.333,197.833 253.667,199.167 253,200.5C 252.601,200.272 252.435,199.938 252.5,199.5C 252.173,194.456 252.506,189.456 253.5,184.5C 254.981,186.957 256.148,189.623 257,192.5C 258.598,179.507 258.765,166.507 257.5,153.5C 257.351,152.448 257.517,151.448 258,150.5C 260.375,152.945 261.709,155.945 262,159.5C 262.5,170.828 262.667,182.162 262.5,193.5 Z"/></g>
<g><path style="opacity:1" fill="#c23155" d="M 142.5,169.5 C 141.768,168.192 140.934,166.858 140,165.5C 139.716,167.886 138.716,168.552 137,167.5C 136.692,168.308 136.192,168.975 135.5,169.5C 134.305,167.703 132.638,166.703 130.5,166.5C 130.179,172.026 130.512,177.36 131.5,182.5C 132.5,186.501 133.5,190.501 134.5,194.5C 132.494,191.14 130.994,187.474 130,183.5C 129.333,177.5 129.333,171.5 130,165.5C 130.566,163.277 131.4,161.277 132.5,159.5C 134.144,159.714 135.644,159.38 137,158.5C 137.617,159.449 137.451,160.282 136.5,161C 137.676,162.914 138.676,162.748 139.5,160.5C 142.076,162.878 143.076,165.878 142.5,169.5 Z"/></g>
<g><path style="opacity:1" fill="#cd2b4a" d="M 142.5,169.5 C 142.198,172.059 142.532,174.393 143.5,176.5C 144.542,183.248 147.209,189.248 151.5,194.5C 151.631,195.376 151.298,196.043 150.5,196.5C 148.739,195.965 147.406,194.965 146.5,193.5C 145.949,190.733 144.616,188.4 142.5,186.5C 143.167,186.167 143.833,185.833 144.5,185.5C 142.914,183.827 142.247,181.827 142.5,179.5C 140.833,179.5 139.167,179.5 137.5,179.5C 137.5,178.167 137.5,176.833 137.5,175.5C 135.549,175.773 134.049,175.107 133,173.5C 132.304,176.478 131.804,179.478 131.5,182.5C 130.512,177.36 130.179,172.026 130.5,166.5C 132.638,166.703 134.305,167.703 135.5,169.5C 136.192,168.975 136.692,168.308 137,167.5C 138.716,168.552 139.716,167.886 140,165.5C 140.934,166.858 141.768,168.192 142.5,169.5 Z"/></g>
<g><path style="opacity:1" fill="#ad3f8a" d="M 216.5,159.5 C 217.776,161.562 218.61,163.896 219,166.5C 219.817,172.016 219.651,177.35 218.5,182.5C 213.611,181.242 208.944,181.242 204.5,182.5C 205.906,176.082 205.573,169.748 203.5,163.5C 205.79,164.456 207.456,166.123 208.5,168.5C 209.776,169.645 211.109,169.645 212.5,168.5C 213.192,169.025 213.692,169.692 214,170.5C 216.209,167.211 217.042,163.544 216.5,159.5 Z"/></g>
<g><path style="opacity:1" fill="#e14a3c" d="M 85.5,165.5 C 86.8471,166.171 88.0138,166.171 89,165.5C 89.4186,166.672 90.0853,167.672 91,168.5C 93.2623,167.831 95.429,167.498 97.5,167.5C 97.5,169.167 97.5,170.833 97.5,172.5C 97.5,176.5 97.5,180.5 97.5,184.5C 95.8543,184.542 94.1877,184.542 92.5,184.5C 91.8333,183.5 91.1667,182.5 90.5,181.5C 89.2638,182.246 87.9305,182.579 86.5,182.5C 86.7947,180.265 86.4614,178.265 85.5,176.5C 85.5,172.833 85.5,169.167 85.5,165.5 Z"/></g>
<g><path style="opacity:1" fill="#d72f3f" d="M 146.5,193.5 C 145.448,193.351 144.448,193.517 143.5,194C 144.412,195.625 143.745,196.459 141.5,196.5C 140.143,197.59 139.143,198.924 138.5,200.5C 136.178,199.198 134.845,197.198 134.5,194.5C 133.5,190.501 132.5,186.501 131.5,182.5C 131.804,179.478 132.304,176.478 133,173.5C 134.049,175.107 135.549,175.773 137.5,175.5C 137.5,176.833 137.5,178.167 137.5,179.5C 139.167,179.5 140.833,179.5 142.5,179.5C 142.247,181.827 142.914,183.827 144.5,185.5C 143.833,185.833 143.167,186.167 142.5,186.5C 144.616,188.4 145.949,190.733 146.5,193.5 Z"/></g>
<g><path style="opacity:1" fill="#b73872" d="M 218.5,182.5 C 217.836,187.825 216.169,192.825 213.5,197.5C 212.735,196.34 211.735,195.34 210.5,194.5C 207.112,196.139 205.112,195.139 204.5,191.5C 203.448,191.351 202.448,191.517 201.5,192C 198.924,195.082 195.924,197.582 192.5,199.5C 194.795,196.703 197.295,194.036 200,191.5C 201.787,188.637 203.287,185.637 204.5,182.5C 208.944,181.242 213.611,181.242 218.5,182.5 Z"/></g>
<g><path style="opacity:1" fill="#e7663e" d="M 85.5,176.5 C 86.4614,178.265 86.7947,180.265 86.5,182.5C 87.9305,182.579 89.2638,182.246 90.5,181.5C 91.1667,182.5 91.8333,183.5 92.5,184.5C 94.1877,184.542 95.8543,184.542 97.5,184.5C 97.4599,189.193 97.1266,193.859 96.5,198.5C 93.4222,197.798 90.4222,196.798 87.5,195.5C 86.5549,191.552 85.8882,187.552 85.5,183.5C 85.5,181.167 85.5,178.833 85.5,176.5 Z"/></g>
<g><path style="opacity:1" fill="#e48046" d="M 97.5,172.5 C 97.8333,172.5 98.1667,172.5 98.5,172.5C 98.5,189.5 98.5,206.5 98.5,223.5C 97.6739,218.684 97.1739,213.684 97,208.5C 95.2765,215.73 91.9431,216.397 87,210.5C 86.0147,212.175 85.1814,213.842 84.5,215.5C 84.5,204.833 84.5,194.167 84.5,183.5C 84.8333,183.5 85.1667,183.5 85.5,183.5C 85.8882,187.552 86.5549,191.552 87.5,195.5C 90.4222,196.798 93.4222,197.798 96.5,198.5C 97.1266,193.859 97.4599,189.193 97.5,184.5C 97.5,180.5 97.5,176.5 97.5,172.5 Z"/></g>
<g><path style="opacity:1" fill="#d9423e" d="M 141.5,196.5 C 142.191,198.022 143.358,199.022 145,199.5C 146.567,198.144 148.4,197.477 150.5,197.5C 150.714,199.144 150.38,200.644 149.5,202C 152.279,203.722 155.279,204.889 158.5,205.5C 159.212,208.6 161.212,210.434 164.5,211C 163.62,212.356 163.286,213.856 163.5,215.5C 165.735,215.205 167.735,215.539 169.5,216.5C 164.729,216.462 160.062,215.796 155.5,214.5C 148.057,211.951 142.39,207.284 138.5,200.5C 139.143,198.924 140.143,197.59 141.5,196.5 Z"/></g>
<g><path style="opacity:1" fill="#c32e56" d="M 213.5,197.5 C 208.651,205.352 201.984,211.019 193.5,214.5C 193.821,212.952 194.821,212.285 196.5,212.5C 196.354,210.058 197.187,209.391 199,210.5C 199.167,210 199.333,209.5 199.5,209C 197.909,205.978 196.242,203.144 194.5,200.5C 191.746,201.366 189.079,202.533 186.5,204C 184.19,204.497 181.857,204.663 179.5,204.5C 183.825,203.054 188.158,201.387 192.5,199.5C 195.924,197.582 198.924,195.082 201.5,192C 202.448,191.517 203.448,191.351 204.5,191.5C 205.112,195.139 207.112,196.139 210.5,194.5C 211.735,195.34 212.735,196.34 213.5,197.5 Z"/></g>
<g><path style="opacity:1" fill="#d6363f" d="M 146.5,193.5 C 147.406,194.965 148.739,195.965 150.5,196.5C 151.298,196.043 151.631,195.376 151.5,194.5C 153.5,196.167 155.5,197.833 157.5,199.5C 157.369,200.376 157.702,201.043 158.5,201.5C 162.184,203.383 165.851,205.05 169.5,206.5C 169.265,207.097 168.765,207.43 168,207.5C 164.906,206.434 161.74,205.768 158.5,205.5C 155.279,204.889 152.279,203.722 149.5,202C 150.38,200.644 150.714,199.144 150.5,197.5C 148.4,197.477 146.567,198.144 145,199.5C 143.358,199.022 142.191,198.022 141.5,196.5C 143.745,196.459 144.412,195.625 143.5,194C 144.448,193.517 145.448,193.351 146.5,193.5 Z"/></g>
<g><path style="opacity:1" fill="#db343c" d="M 158.5,205.5 C 161.74,205.768 164.906,206.434 168,207.5C 168.765,207.43 169.265,207.097 169.5,206.5C 176.2,206.17 182.866,206.503 189.5,207.5C 191.743,209.593 192.077,211.926 190.5,214.5C 183.615,216.068 176.615,216.735 169.5,216.5C 167.735,215.539 165.735,215.205 163.5,215.5C 163.286,213.856 163.62,212.356 164.5,211C 161.212,210.434 159.212,208.6 158.5,205.5 Z"/></g>
<g><path style="opacity:1" fill="#ce2a47" d="M 157.5,199.5 C 164.261,203.453 171.594,205.12 179.5,204.5C 181.857,204.663 184.19,204.497 186.5,204C 189.079,202.533 191.746,201.366 194.5,200.5C 196.242,203.144 197.909,205.978 199.5,209C 199.333,209.5 199.167,210 199,210.5C 197.187,209.391 196.354,210.058 196.5,212.5C 194.821,212.285 193.821,212.952 193.5,214.5C 192.5,214.5 191.5,214.5 190.5,214.5C 192.077,211.926 191.743,209.593 189.5,207.5C 182.866,206.503 176.2,206.17 169.5,206.5C 165.851,205.05 162.184,203.383 158.5,201.5C 157.702,201.043 157.369,200.376 157.5,199.5 Z"/></g>
<g><path style="opacity:1" fill="#b33984" d="M 262.5,193.5 C 263.494,202.986 263.827,212.652 263.5,222.5C 262.882,220.622 261.548,218.455 259.5,216C 257.837,215.735 256.337,216.235 255,217.5C 252.012,214.919 250.846,211.586 251.5,207.5C 251.194,204.615 251.527,201.948 252.5,199.5C 252.435,199.938 252.601,200.272 253,200.5C 253.667,199.167 254.333,197.833 255,196.5C 257.343,197.127 259.51,198.127 261.5,199.5C 262.466,197.604 262.799,195.604 262.5,193.5 Z"/></g>
<g><path style="opacity:1" fill="#c34549" d="M 155.5,214.5 C 160.062,215.796 164.729,216.462 169.5,216.5C 176.615,216.735 183.615,216.068 190.5,214.5C 191.5,214.5 192.5,214.5 193.5,214.5C 180.833,221.167 168.167,221.167 155.5,214.5 Z"/></g>
<g><path style="opacity:1" fill="#f5a33c" d="M 98.5,223.5 C 98.7839,226.777 98.4505,229.943 97.5,233C 96.2559,233.456 95.4226,232.956 95,231.5C 94.6667,231.833 94.3333,232.167 94,232.5C 92.6861,231.687 91.5195,230.687 90.5,229.5C 89.7189,230.729 89.2189,232.062 89,233.5C 88.3292,232.748 87.4959,232.414 86.5,232.5C 85.71,231.391 85.21,230.058 85,228.5C 84.501,224.179 84.3343,219.846 84.5,215.5C 85.1814,213.842 86.0147,212.175 87,210.5C 91.9431,216.397 95.2765,215.73 97,208.5C 97.1739,213.684 97.6739,218.684 98.5,223.5 Z"/></g>
<g><path style="opacity:1" fill="#be3362" d="M 250.5,207.5 C 250.833,207.5 251.167,207.5 251.5,207.5C 250.846,211.586 252.012,214.919 255,217.5C 256.337,216.235 257.837,215.735 259.5,216C 261.548,218.455 262.882,220.622 263.5,222.5C 263.833,222.5 264.167,222.5 264.5,222.5C 264.079,229.427 262.079,235.76 258.5,241.5C 258.553,238.86 259.22,236.36 260.5,234C 259.944,230.561 258.111,229.728 255,231.5C 254.333,230.167 253.333,229.167 252,228.5C 251.667,227.167 251.333,225.833 251,224.5C 250.605,227.652 249.772,230.652 248.5,233.5C 248.158,234.338 247.492,234.672 246.5,234.5C 249.946,225.859 251.28,216.859 250.5,207.5 Z"/></g>
<g><path style="opacity:1" fill="#ca2e50" d="M 258.5,241.5 C 256.303,245.238 253.636,248.571 250.5,251.5C 250.557,250.391 250.89,249.391 251.5,248.5C 252.451,247.081 252.784,245.415 252.5,243.5C 253.833,243.5 255.167,243.5 256.5,243.5C 256.5,242.167 256.5,240.833 256.5,239.5C 255.5,239.5 254.5,239.5 253.5,239.5C 252.684,236.893 251.017,234.893 248.5,233.5C 249.772,230.652 250.605,227.652 251,224.5C 251.333,225.833 251.667,227.167 252,228.5C 253.333,229.167 254.333,230.167 255,231.5C 258.111,229.728 259.944,230.561 260.5,234C 259.22,236.36 258.553,238.86 258.5,241.5 Z"/></g>
<g><path style="opacity:1" fill="#d22745" d="M 248.5,233.5 C 251.017,234.893 252.684,236.893 253.5,239.5C 254.5,239.5 255.5,239.5 256.5,239.5C 256.5,240.833 256.5,242.167 256.5,243.5C 255.167,243.5 253.833,243.5 252.5,243.5C 252.784,245.415 252.451,247.081 251.5,248.5C 251.539,247.244 251.039,246.244 250,245.5C 249.161,246.624 247.994,247.291 246.5,247.5C 243.075,247.136 240.741,245.97 239.5,244C 242.888,241.469 245.221,238.302 246.5,234.5C 247.492,234.672 248.158,234.338 248.5,233.5 Z"/></g>
<g><path style="opacity:0.996" fill="#f6b63e" d="M 98.5,223.5 C 100.854,234.858 107.52,242.524 118.5,246.5C 114.487,247.176 110.487,248.176 106.5,249.5C 103.397,249.798 101.73,248.465 101.5,245.5C 100.167,245.5 98.8333,245.5 97.5,245.5C 97.5721,248.553 98.5721,251.219 100.5,253.5C 93.5874,248.011 88.9208,241.011 86.5,232.5C 87.4959,232.414 88.3292,232.748 89,233.5C 89.2189,232.062 89.7189,230.729 90.5,229.5C 91.5195,230.687 92.6861,231.687 94,232.5C 94.3333,232.167 94.6667,231.833 95,231.5C 95.4226,232.956 96.2559,233.456 97.5,233C 98.4505,229.943 98.7839,226.777 98.5,223.5 Z"/></g>
<g><path style="opacity:1" fill="#ce3b43" d="M 246.5,234.5 C 245.221,238.302 242.888,241.469 239.5,244C 240.741,245.97 243.075,247.136 246.5,247.5C 247.994,247.291 249.161,246.624 250,245.5C 251.039,246.244 251.539,247.244 251.5,248.5C 250.89,249.391 250.557,250.391 250.5,251.5C 245.877,256.314 240.21,259.314 233.5,260.5C 234.974,259.325 236.64,258.325 238.5,257.5C 239.632,254.176 240.632,250.843 241.5,247.5C 237.215,248.624 232.882,249.624 228.5,250.5C 227.524,249.805 226.524,249.138 225.5,248.5C 234.3,246.595 241.3,241.929 246.5,234.5 Z"/></g>
<g><path style="opacity:1" fill="#f08b3c" d="M 167.5,250.5 C 172.845,250.687 178.178,251.02 183.5,251.5C 183.162,253.854 182.662,256.187 182,258.5C 180.052,259.109 178.218,259.776 176.5,260.5C 170.833,260.5 165.167,260.5 159.5,260.5C 160.574,258.716 162.24,257.549 164.5,257C 163.5,255.333 162.167,254 160.5,253C 161.833,252.333 161.833,251.667 160.5,251C 162.81,250.503 165.143,250.337 167.5,250.5 Z"/></g>
<g><path style="opacity:1" fill="#e55a3d" d="M 202.5,250.5 C 209.247,250.386 215.913,251.053 222.5,252.5C 223.074,254.059 223.74,255.559 224.5,257C 227.167,257.333 229.833,257.667 232.5,258C 229.782,259.768 226.949,259.934 224,258.5C 223.5,259 223,259.5 222.5,260C 217.511,260.499 212.511,260.666 207.5,260.5C 209.292,259.691 211.292,259.191 213.5,259C 214.747,257.542 214.747,256.042 213.5,254.5C 214.025,253.808 214.692,253.308 215.5,253C 211.035,252.126 206.702,251.293 202.5,250.5 Z"/></g>
<g><path style="opacity:1" fill="#f8b23b" d="M 119.5,247.5 C 121.292,247.366 122.958,247.699 124.5,248.5C 130.645,249.49 136.978,249.823 143.5,249.5C 143.063,251.074 142.063,252.241 140.5,253C 144.953,253.805 145.62,255.972 142.5,259.5C 137.056,260.108 132.056,259.442 127.5,257.5C 127.5,256.5 127.5,255.5 127.5,254.5C 122.218,252.721 116.884,252.055 111.5,252.5C 114.542,251.246 117.209,249.58 119.5,247.5 Z"/></g>
<g><path style="opacity:1" fill="#f4a03b" d="M 143.5,249.5 C 151.684,249.174 159.684,249.508 167.5,250.5C 165.143,250.337 162.81,250.503 160.5,251C 161.833,251.667 161.833,252.333 160.5,253C 162.167,254 163.5,255.333 164.5,257C 162.24,257.549 160.574,258.716 159.5,260.5C 153.741,260.786 148.075,260.452 142.5,259.5C 145.62,255.972 144.953,253.805 140.5,253C 142.063,252.241 143.063,251.074 143.5,249.5 Z"/></g>
<g><path style="opacity:1" fill="#dc7c4a" d="M 124.5,248.5 C 158.167,248.5 191.833,248.5 225.5,248.5C 216.167,249.167 206.833,249.833 197.5,250.5C 194.955,252.568 191.955,253.901 188.5,254.5C 189.912,255.806 191.579,256.64 193.5,257C 190.833,257.667 190.833,258.333 193.5,259C 196.695,259.181 199.695,259.681 202.5,260.5C 193.833,260.5 185.167,260.5 176.5,260.5C 178.218,259.776 180.052,259.109 182,258.5C 182.662,256.187 183.162,253.854 183.5,251.5C 178.178,251.02 172.845,250.687 167.5,250.5C 159.684,249.508 151.684,249.174 143.5,249.5C 136.978,249.823 130.645,249.49 124.5,248.5 Z"/></g>
<g><path style="opacity:1" fill="#e86c3d" d="M 197.5,250.5 C 199.167,250.5 200.833,250.5 202.5,250.5C 206.702,251.293 211.035,252.126 215.5,253C 214.692,253.308 214.025,253.808 213.5,254.5C 214.747,256.042 214.747,257.542 213.5,259C 211.292,259.191 209.292,259.691 207.5,260.5C 205.833,260.5 204.167,260.5 202.5,260.5C 199.695,259.681 196.695,259.181 193.5,259C 190.833,258.333 190.833,257.667 193.5,257C 191.579,256.64 189.912,255.806 188.5,254.5C 191.955,253.901 194.955,252.568 197.5,250.5 Z"/></g>
<g><path style="opacity:0.997" fill="#f8bc32" d="M 118.5,246.5 C 119.167,246.5 119.5,246.833 119.5,247.5C 117.209,249.58 114.542,251.246 111.5,252.5C 116.884,252.055 122.218,252.721 127.5,254.5C 127.5,255.5 127.5,256.5 127.5,257.5C 125.325,257.682 123.325,258.349 121.5,259.5C 117.295,257.966 112.962,256.966 108.5,256.5C 108.5,255.5 108.5,254.5 108.5,253.5C 106.167,253.5 103.833,253.5 101.5,253.5C 101.167,253.5 100.833,253.5 100.5,253.5C 98.5721,251.219 97.5721,248.553 97.5,245.5C 98.8333,245.5 100.167,245.5 101.5,245.5C 101.73,248.465 103.397,249.798 106.5,249.5C 110.487,248.176 114.487,247.176 118.5,246.5 Z"/></g>
<g><path style="opacity:1" fill="#dd4f42" d="M 233.5,260.5 C 232.432,261.434 231.099,261.768 229.5,261.5C 221.981,261.825 214.648,261.492 207.5,260.5C 212.511,260.666 217.511,260.499 222.5,260C 223,259.5 223.5,259 224,258.5C 226.949,259.934 229.782,259.768 232.5,258C 229.833,257.667 227.167,257.333 224.5,257C 223.74,255.559 223.074,254.059 222.5,252.5C 215.913,251.053 209.247,250.386 202.5,250.5C 200.833,250.5 199.167,250.5 197.5,250.5C 206.833,249.833 216.167,249.167 225.5,248.5C 226.524,249.138 227.524,249.805 228.5,250.5C 232.882,249.624 237.215,248.624 241.5,247.5C 240.632,250.843 239.632,254.176 238.5,257.5C 236.64,258.325 234.974,259.325 233.5,260.5 Z"/></g>
<g><path style="opacity:0.996" fill="#f3b947" d="M 101.5,253.5 C 103.833,253.5 106.167,253.5 108.5,253.5C 108.5,254.5 108.5,255.5 108.5,256.5C 112.962,256.966 117.295,257.966 121.5,259.5C 123.325,258.349 125.325,257.682 127.5,257.5C 132.056,259.442 137.056,260.108 142.5,259.5C 148.075,260.452 153.741,260.786 159.5,260.5C 159.5,260.833 159.5,261.167 159.5,261.5C 145.833,261.5 132.167,261.5 118.5,261.5C 111.877,260.686 106.21,258.02 101.5,253.5 Z"/></g>
<g><path style="opacity:0.486" fill="#d1a661" d="M 118.5,261.5 C 132.167,261.5 145.833,261.5 159.5,261.5C 165.026,261.179 170.36,261.512 175.5,262.5C 172.792,262.944 169.959,263.277 167,263.5C 150.735,262.84 134.569,262.174 118.5,261.5 Z"/></g>
<g><path style="opacity:0.461" fill="#d17d53" d="M 159.5,261.5 C 159.5,261.167 159.5,260.833 159.5,260.5C 165.167,260.5 170.833,260.5 176.5,260.5C 185.167,260.5 193.833,260.5 202.5,260.5C 204.167,260.5 205.833,260.5 207.5,260.5C 214.648,261.492 221.981,261.825 229.5,261.5C 214.765,262.174 199.931,262.841 185,263.5C 181.943,262.549 178.777,262.216 175.5,262.5C 170.36,261.512 165.026,261.179 159.5,261.5 Z"/></g>
</svg>
