<?xml version="1.0" encoding="UTF-8"?>
<!DOCTYPE svg PUBLIC "-//W3C//DTD SVG 1.1//EN" "http://www.w3.org/Graphics/SVG/1.1/DTD/svg11.dtd">
<svg xmlns="http://www.w3.org/2000/svg" version="1.1" width="500px" height="500px" style="shape-rendering:geometricPrecision; text-rendering:geometricPrecision; image-rendering:optimizeQuality; fill-rule:evenodd; clip-rule:evenodd" xmlns:xlink="http://www.w3.org/1999/xlink">
<g><path style="opacity:1" fill="#4172b0" d="M 88.5,42.5 C 195.834,42.3333 303.167,42.5 410.5,43C 439.14,48.6392 455.973,65.8059 461,94.5C 461.667,197.833 461.667,301.167 461,404.5C 455.97,433.197 439.136,450.364 410.5,456C 303.167,456.667 195.833,456.667 88.5,456C 58.4608,449.964 41.6275,431.798 38,401.5C 37.3333,300.5 37.3333,199.5 38,98.5C 39.9814,75.5279 51.148,58.6945 71.5,48C 77.1368,45.6825 82.8035,43.8492 88.5,42.5 Z M 153.5,127.5 C 176.405,126.579 189.405,137.412 192.5,160C 189.453,182.701 176.453,193.367 153.5,192C 132.309,186.963 123.309,173.63 126.5,152C 128.468,144.035 132.801,137.701 139.5,133C 143.962,130.255 148.628,128.422 153.5,127.5 Z M 333.5,208.5 C 345.696,212.032 355.362,219.032 362.5,229.5C 369.848,244.541 373.681,260.541 374,277.5C 374.5,307.165 374.667,336.831 374.5,366.5C 373.167,368.5 371.5,370.167 369.5,371.5C 354.119,371.802 338.785,371.469 323.5,370.5C 323.013,369.527 322.513,368.527 322,367.5C 321.782,360.297 321.282,353.13 320.5,346C 321.311,322.676 321.144,298.51 320,273.5C 316.109,254.63 304.609,246.797 285.5,250C 275.768,252.235 269.435,258.068 266.5,267.5C 264.871,269.858 263.705,272.524 263,275.5C 262.667,305.833 262.333,336.167 262,366.5C 261.26,368.97 259.76,370.637 257.5,371.5C 243.163,371.667 228.829,371.5 214.5,371C 213.069,370.535 211.903,369.701 211,368.5C 210.5,316.834 210.333,265.168 210.5,213.5C 210.5,212.833 210.5,212.167 210.5,211.5C 211.872,210.488 213.205,209.488 214.5,208.5C 228.837,208.333 243.171,208.5 257.5,209C 259.552,209.93 261.052,211.43 262,213.5C 262.172,218.202 262.672,222.868 263.5,227.5C 265.897,225.441 267.897,223.108 269.5,220.5C 273.924,216.73 278.591,213.396 283.5,210.5C 300.016,205.313 316.683,204.647 333.5,208.5 Z M 184.5,213.5 C 184.667,264.501 184.5,315.501 184,366.5C 183.215,368.286 182.049,369.786 180.5,371C 166.5,371.667 152.5,371.667 138.5,371C 136.152,370.89 134.652,369.723 134,367.5C 133.5,316.168 133.333,264.834 133.5,213.5C 134.023,211.292 135.356,209.792 137.5,209C 151.833,208.333 166.167,208.333 180.5,209C 182.07,210.397 183.404,211.897 184.5,213.5 Z"/></g>
<g><path style="opacity:0.761" fill="#5f7ea7" d="M 333.5,208.5 C 316.683,204.647 300.016,205.313 283.5,210.5C 283.5,209.5 283.5,208.5 283.5,207.5C 288.098,207.727 292.432,206.894 296.5,205C 308.539,204.162 320.539,204.496 332.5,206C 334.619,206.342 334.953,207.175 333.5,208.5 Z"/></g>
<g><path style="opacity:0.676" fill="#517097" d="M 269.5,220.5 C 267.897,223.108 265.897,225.441 263.5,227.5C 262.672,222.868 262.172,218.202 262,213.5C 261.052,211.43 259.552,209.93 257.5,209C 243.171,208.5 228.837,208.333 214.5,208.5C 229.422,207.501 245.088,207.168 261.5,207.5C 262.715,211.724 263.549,216.057 264,220.5C 265.951,220.598 267.785,220.598 269.5,220.5 Z"/></g>
<g><path style="opacity:1" fill="#5075a0" d="M 374.5,366.5 C 374.667,336.831 374.5,307.165 374,277.5C 373.681,260.541 369.848,244.541 362.5,229.5C 363.738,230.412 365.072,230.579 366.5,230C 365.269,228.817 365.269,227.651 366.5,226.5C 366.833,227.167 367.167,227.833 367.5,228.5C 369.289,239.093 371.622,249.76 374.5,260.5C 375.192,259.975 375.692,259.308 376,258.5C 378,262.5 378,266.5 376,270.5C 375.832,302.669 375.332,334.669 374.5,366.5 Z"/></g>
<g><path style="opacity:0.579" fill="#33598b" d="M 210.5,211.5 C 210.5,212.167 210.5,212.833 210.5,213.5C 209.667,264.665 209.167,315.998 209,367.5C 208.167,315.163 208.333,262.83 209.5,210.5C 210.107,210.624 210.44,210.957 210.5,211.5 Z"/></g>
<g><path style="opacity:0.697" fill="#385c8a" d="M 184.5,213.5 C 183.404,211.897 182.07,210.397 180.5,209C 166.167,208.333 151.833,208.333 137.5,209C 135.356,209.792 134.023,211.292 133.5,213.5C 132.667,264.665 132.167,315.998 132,367.5C 131.5,314.834 131.333,262.168 131.5,209.5C 148.715,207.255 166.048,206.922 183.5,208.5C 184.531,209.7 185.365,211.034 186,212.5C 186.667,263.5 186.667,314.5 186,365.5C 185.833,314.665 185.333,263.998 184.5,213.5 Z"/></g>
<g><path style="opacity:0.995" fill="#49739e" d="M 266.5,267.5 C 264.784,300.779 263.95,334.113 264,367.5C 263.044,371.353 260.878,372.686 257.5,371.5C 259.76,370.637 261.26,368.97 262,366.5C 262.333,336.167 262.667,305.833 263,275.5C 263.705,272.524 264.871,269.858 266.5,267.5 Z"/></g>
<g><path style="opacity:0.043" fill="#84a2ce" d="M 323.5,370.5 C 338.785,371.469 354.119,371.802 369.5,371.5C 354.672,372.661 339.672,372.828 324.5,372C 323.944,371.617 323.611,371.117 323.5,370.5 Z"/></g>
</svg>
