<?xml version="1.0" encoding="UTF-8"?>
<!DOCTYPE svg PUBLIC "-//W3C//DTD SVG 1.1//EN" "http://www.w3.org/Graphics/SVG/1.1/DTD/svg11.dtd">
<svg xmlns="http://www.w3.org/2000/svg" version="1.1" width="350px" height="350px" style="shape-rendering:geometricPrecision; text-rendering:geometricPrecision; image-rendering:optimizeQuality; fill-rule:evenodd; clip-rule:evenodd" xmlns:xlink="http://www.w3.org/1999/xlink">
<g><path style="opacity:1" fill="#2885e9" d="M 260.5,76.5 C 253.943,76.6168 247.61,75.1168 241.5,72C 237.541,71.1735 233.541,70.6735 229.5,70.5C 216.689,71.6028 203.856,72.2694 191,72.5C 167.57,71.8372 143.903,71.5038 120,71.5C 116.359,71.7631 113.026,72.7631 110,74.5C 108.933,73.8095 107.766,73.3095 106.5,73C 107.167,72.6667 107.833,72.3333 108.5,72C 105.072,71.2989 101.738,71.6323 98.5,73C 99.1667,73.3333 99.8333,73.6667 100.5,74C 93.2046,73.7417 87.538,76.575 83.5,82.5C 82.5832,83.1272 81.5832,83.4606 80.5,83.5C 88.7968,73.776 99.4634,68.9427 112.5,69C 153.833,68.3333 195.167,68.3333 236.5,69C 240.894,69.3028 245.227,69.9695 249.5,71C 253.787,71.81 257.454,73.6433 260.5,76.5 Z"/></g>
<g><path style="opacity:1" fill="#0180fe" d="M 260.5,76.5 C 270.735,82.6267 276.735,91.6267 278.5,103.5C 278.809,151.853 278.476,200.186 277.5,248.5C 275.058,248.646 274.391,247.813 275.5,246C 274.667,245.167 273.833,244.333 273,243.5C 273.003,247.673 273.337,252.007 274,256.5C 271.816,259.797 269.983,263.13 268.5,266.5C 268.5,267.167 268.167,267.5 267.5,267.5C 267.265,266.903 266.765,266.57 266,266.5C 261.341,272.78 255.508,274.78 248.5,272.5C 245.035,273.434 244.702,274.934 247.5,277C 228.715,278.318 209.715,278.818 190.5,278.5C 190.5,254.167 190.5,229.833 190.5,205.5C 197.687,205.825 204.687,205.491 211.5,204.5C 212.167,204.5 212.5,204.167 212.5,203.5C 213.458,203.047 214.292,202.381 215,201.5C 215.355,192.753 216.855,184.253 219.5,176C 218.728,174.779 217.728,173.779 216.5,173C 208.167,172.667 199.833,172.333 191.5,172C 190.353,164.246 190.186,156.413 191,148.5C 194.115,146.353 196.948,143.853 199.5,141C 205.95,141.102 212.116,140.269 218,138.5C 220.258,130.691 220.592,122.691 219,114.5C 216.619,113.565 214.119,113.232 211.5,113.5C 211.5,112.5 211.5,111.5 211.5,110.5C 201.117,110.162 190.784,110.662 180.5,112C 176.97,114.695 173.304,117.195 169.5,119.5C 168.048,120.94 167.048,122.606 166.5,124.5C 163.234,124.433 161.734,126.099 162,129.5C 158.945,132.531 156.445,135.864 154.5,139.5C 155.74,150.81 155.74,162.143 154.5,173.5C 146.248,173.184 138.081,173.518 130,174.5C 129.833,179.333 129.667,184.167 129.5,189C 129.506,194.216 130.173,199.049 131.5,203.5C 131.5,203.833 131.5,204.167 131.5,204.5C 134.171,205.298 137.004,205.965 140,206.5C 145.218,205.894 150.385,205.561 155.5,205.5C 155.823,229.212 155.49,252.878 154.5,276.5C 153.975,277.192 153.308,277.692 152.5,278C 138.92,279.013 125.42,278.513 112,276.5C 109.667,276.833 107.333,277.167 105,277.5C 100.414,276.728 95.914,275.728 91.5,274.5C 84.2923,271.463 78.7923,266.463 75,259.5C 73.1319,256.395 71.9652,253.062 71.5,249.5C 70.5287,200.85 70.1954,152.183 70.5,103.5C 71.2042,95.4248 74.5375,88.7581 80.5,83.5C 81.5832,83.4606 82.5832,83.1272 83.5,82.5C 87.538,76.575 93.2046,73.7417 100.5,74C 99.8333,73.6667 99.1667,73.3333 98.5,73C 101.738,71.6323 105.072,71.2989 108.5,72C 107.833,72.3333 107.167,72.6667 106.5,73C 107.766,73.3095 108.933,73.8095 110,74.5C 113.026,72.7631 116.359,71.7631 120,71.5C 143.903,71.5038 167.57,71.8372 191,72.5C 203.856,72.2694 216.689,71.6028 229.5,70.5C 233.541,70.6735 237.541,71.1735 241.5,72C 247.61,75.1168 253.943,76.6168 260.5,76.5 Z"/></g>
<g><path style="opacity:1" fill="#257ed7" d="M 212.5,203.5 C 213.474,194.572 214.807,185.739 216.5,177C 207.334,175.529 198.001,175.029 188.5,175.5C 188.083,166.085 188.583,156.752 190,147.5C 191.833,144.333 194.333,141.833 197.5,140C 204.002,138.939 210.502,138.106 217,137.5C 217.667,130.167 217.667,122.833 217,115.5C 203.342,111.165 189.842,111.665 176.5,117C 172.724,118.947 169.39,121.447 166.5,124.5C 167.048,122.606 168.048,120.94 169.5,119.5C 173.304,117.195 176.97,114.695 180.5,112C 190.784,110.662 201.117,110.162 211.5,110.5C 211.5,111.5 211.5,112.5 211.5,113.5C 214.119,113.232 216.619,113.565 219,114.5C 220.592,122.691 220.258,130.691 218,138.5C 212.116,140.269 205.95,141.102 199.5,141C 196.948,143.853 194.115,146.353 191,148.5C 190.186,156.413 190.353,164.246 191.5,172C 199.833,172.333 208.167,172.667 216.5,173C 217.728,173.779 218.728,174.779 219.5,176C 216.855,184.253 215.355,192.753 215,201.5C 214.292,202.381 213.458,203.047 212.5,203.5 Z"/></g>
<g><path style="opacity:0.125" fill="#3483cf" d="M 70.5,103.5 C 70.1954,152.183 70.5287,200.85 71.5,249.5C 69.982,245.434 69.1487,241.101 69,236.5C 68.3333,195.167 68.3333,153.833 69,112.5C 69.1805,109.305 69.6805,106.305 70.5,103.5 Z"/></g>
<g><path style="opacity:1" fill="#217fdb" d="M 166.5,124.5 C 162.944,129.657 160.444,135.324 159,141.5C 158.69,152.85 158.19,164.183 157.5,175.5C 148.833,175.5 140.167,175.5 131.5,175.5C 131.5,184.833 131.5,194.167 131.5,203.5C 130.173,199.049 129.506,194.216 129.5,189C 129.667,184.167 129.833,179.333 130,174.5C 138.081,173.518 146.248,173.184 154.5,173.5C 155.74,162.143 155.74,150.81 154.5,139.5C 156.445,135.864 158.945,132.531 162,129.5C 161.734,126.099 163.234,124.433 166.5,124.5 Z"/></g>
<g><path style="opacity:0.855" fill="#3087df" d="M 278.5,103.5 C 279.319,106.305 279.819,109.305 280,112.5C 280.667,153.833 280.667,195.167 280,236.5C 279.773,248.032 275.94,258.032 268.5,266.5C 269.983,263.13 271.816,259.797 274,256.5C 273.337,252.007 273.003,247.673 273,243.5C 273.833,244.333 274.667,245.167 275.5,246C 274.391,247.813 275.058,248.646 277.5,248.5C 278.476,200.186 278.809,151.853 278.5,103.5 Z"/></g>
<g><path style="opacity:0.55" fill="#377cbc" d="M 212.5,203.5 C 212.5,204.167 212.167,204.5 211.5,204.5C 204.167,204.5 196.833,204.5 189.5,204.5C 189.5,229.5 189.5,254.5 189.5,279.5C 205.009,279.17 220.342,279.504 235.5,280.5C 219.833,280.5 204.167,280.5 188.5,280.5C 188.333,254.831 188.5,229.165 189,203.5C 196.683,203.406 204.516,203.406 212.5,203.5 Z"/></g>
<g><path style="opacity:0.647" fill="#3c88d2" d="M 131.5,204.5 C 131.5,204.167 131.5,203.833 131.5,203.5C 140.418,203.183 149.251,203.516 158,204.5C 158.667,229.5 158.667,254.5 158,279.5C 142.735,280.83 127.569,280.83 112.5,279.5C 127.167,279.5 141.833,279.5 156.5,279.5C 156.5,254.5 156.5,229.5 156.5,204.5C 148.167,204.5 139.833,204.5 131.5,204.5 Z"/></g>
<g><path style="opacity:1" fill="#2384e6" d="M 211.5,204.5 C 204.687,205.491 197.687,205.825 190.5,205.5C 190.5,229.833 190.5,254.167 190.5,278.5C 209.715,278.818 228.715,278.318 247.5,277C 244.702,274.934 245.035,273.434 248.5,272.5C 255.508,274.78 261.341,272.78 266,266.5C 266.765,266.57 267.265,266.903 267.5,267.5C 258.527,275.72 247.86,280.053 235.5,280.5C 220.342,279.504 205.009,279.17 189.5,279.5C 189.5,254.5 189.5,229.5 189.5,204.5C 196.833,204.5 204.167,204.5 211.5,204.5 Z"/></g>
<g><path style="opacity:0.855" fill="#1f86eb" d="M 131.5,204.5 C 139.833,204.5 148.167,204.5 156.5,204.5C 156.5,229.5 156.5,254.5 156.5,279.5C 141.833,279.5 127.167,279.5 112.5,279.5C 104.911,279.852 97.9107,278.185 91.5,274.5C 95.914,275.728 100.414,276.728 105,277.5C 107.333,277.167 109.667,276.833 112,276.5C 125.42,278.513 138.92,279.013 152.5,278C 153.308,277.692 153.975,277.192 154.5,276.5C 155.49,252.878 155.823,229.212 155.5,205.5C 150.385,205.561 145.218,205.894 140,206.5C 137.004,205.965 134.171,205.298 131.5,204.5 Z"/></g>
<g><path style="opacity:0.055" fill="#566d87" d="M 159.5,279.5 C 168.657,278.342 177.991,278.176 187.5,279C 178.173,279.5 168.839,279.666 159.5,279.5 Z"/></g>
</svg>
