<?xml version="1.0" encoding="UTF-8"?>
<!DOCTYPE svg PUBLIC "-//W3C//DTD SVG 1.1//EN" "http://www.w3.org/Graphics/SVG/1.1/DTD/svg11.dtd">
<svg xmlns="http://www.w3.org/2000/svg" version="1.1" width="350px" height="350px" style="shape-rendering:geometricPrecision; text-rendering:geometricPrecision; image-rendering:optimizeQuality; fill-rule:evenodd; clip-rule:evenodd" xmlns:xlink="http://www.w3.org/1999/xlink">
<g><path style="opacity:0.875" fill="#4ec663" d="M 167.5,86.5 C 163.817,88.2499 159.817,88.9166 155.5,88.5C 159.21,86.8643 163.21,86.1977 167.5,86.5 Z"/></g>
<g><path style="opacity:0.549" fill="#4eb963" d="M 191.5,87.5 C 194.067,87.7215 196.401,88.3882 198.5,89.5C 195.772,89.8294 193.438,89.1628 191.5,87.5 Z"/></g>
<g><path style="opacity:1" fill="#38d456" d="M 191.5,87.5 C 193.438,89.1628 195.772,89.8294 198.5,89.5C 201.008,91.554 204.008,92.554 207.5,92.5C 209.32,94.4484 211.654,95.4484 214.5,95.5C 214.5,95.8333 214.5,96.1667 214.5,96.5C 210.418,96.8789 206.751,95.8789 203.5,93.5C 202.817,93.8627 202.15,94.1961 201.5,94.5C 201.631,93.7611 201.464,93.0944 201,92.5C 198.14,93.512 194.973,93.512 191.5,92.5C 193.078,91.7022 194.744,91.2022 196.5,91C 192.778,90.7618 189.111,90.2618 185.5,89.5C 185.446,90.5301 185.112,91.6967 184.5,93C 181.5,93.6667 178.5,93.6667 175.5,93C 174.881,91.2429 173.714,90.0762 172,89.5C 169.431,91.0148 166.598,91.6814 163.5,91.5C 159.493,91.165 155.493,90.8316 151.5,90.5C 151.5,90.1667 151.5,89.8333 151.5,89.5C 152.568,88.5655 153.901,88.2322 155.5,88.5C 159.817,88.9166 163.817,88.2499 167.5,86.5C 175.514,85.2942 183.514,85.6275 191.5,87.5 Z"/></g>
<g><path style="opacity:0.875" fill="#4fc064" d="M 151.5,89.5 C 151.5,89.8333 151.5,90.1667 151.5,90.5C 149.565,91.1495 147.565,91.4828 145.5,91.5C 147.102,89.9261 149.102,89.2594 151.5,89.5 Z"/></g>
<g><path style="opacity:0.545" fill="#4bba5f" d="M 198.5,89.5 C 201.785,89.9281 204.785,90.9281 207.5,92.5C 204.008,92.554 201.008,91.554 198.5,89.5 Z"/></g>
<g><path style="opacity:1" fill="#37d555" d="M 151.5,90.5 C 153.076,91.1429 154.41,92.1429 155.5,93.5C 145.427,93.7701 145.261,95.7701 155,99.5C 158.384,98.6131 158.884,97.1131 156.5,95C 160.805,94.7644 161.805,96.2644 159.5,99.5C 161.396,100.466 163.396,100.799 165.5,100.5C 165.5,100.833 165.5,101.167 165.5,101.5C 164.833,101.5 164.5,101.833 164.5,102.5C 161.373,103.581 158.04,104.247 154.5,104.5C 149.017,104.662 144.351,106.662 140.5,110.5C 140.158,111.338 139.492,111.672 138.5,111.5C 136.973,111.427 135.973,112.094 135.5,113.5C 133.216,113.975 131.216,114.975 129.5,116.5C 129.5,115.5 129.5,114.5 129.5,113.5C 127.833,113.5 126.167,113.5 124.5,113.5C 124.55,115.59 123.55,116.923 121.5,117.5C 120.571,116.311 120.238,114.978 120.5,113.5C 123.265,113.29 125.265,111.957 126.5,109.5C 130.123,110.758 133.79,110.758 137.5,109.5C 142.678,105.665 148.512,103.332 155,102.5C 155.667,101.833 155.667,101.167 155,100.5C 151.154,102.187 147.988,101.353 145.5,98C 141.779,97.3219 138.112,97.4886 134.5,98.5C 138.366,96.9735 141.699,94.6401 144.5,91.5C 144.833,91.5 145.167,91.5 145.5,91.5C 147.565,91.4828 149.565,91.1495 151.5,90.5 Z"/></g>
<g><path style="opacity:1" fill="#30d950" d="M 155.5,93.5 C 161.349,94.624 167.182,94.624 173,93.5C 173.5,93.8333 174,94.1667 174.5,94.5C 168.481,95.5634 168.481,97.2301 174.5,99.5C 171.391,99.2641 168.391,99.5975 165.5,100.5C 163.396,100.799 161.396,100.466 159.5,99.5C 161.805,96.2644 160.805,94.7644 156.5,95C 158.884,97.1131 158.384,98.6131 155,99.5C 145.261,95.7701 145.427,93.7701 155.5,93.5 Z"/></g>
<g><path style="opacity:0.302" fill="#50b165" d="M 207.5,92.5 C 210.157,92.9348 212.491,93.9348 214.5,95.5C 211.654,95.4484 209.32,94.4484 207.5,92.5 Z"/></g>
<g><path style="opacity:1" fill="#2fd94e" d="M 201.5,94.5 C 198.338,95.8634 195.004,96.6967 191.5,97C 193.256,97.2022 194.922,97.7022 196.5,98.5C 194.311,99.1735 192.311,100.173 190.5,101.5C 188.566,101.099 187.066,100.099 186,98.5C 184.984,99.6341 184.317,99.3008 184,97.5C 181.003,98.8664 177.836,99.533 174.5,99.5C 168.481,97.2301 168.481,95.5634 174.5,94.5C 174,94.1667 173.5,93.8333 173,93.5C 167.182,94.624 161.349,94.624 155.5,93.5C 154.41,92.1429 153.076,91.1429 151.5,90.5C 155.493,90.8316 159.493,91.165 163.5,91.5C 166.598,91.6814 169.431,91.0148 172,89.5C 173.714,90.0762 174.881,91.2429 175.5,93C 178.5,93.6667 181.5,93.6667 184.5,93C 185.112,91.6967 185.446,90.5301 185.5,89.5C 189.111,90.2618 192.778,90.7618 196.5,91C 194.744,91.2022 193.078,91.7022 191.5,92.5C 194.973,93.512 198.14,93.512 201,92.5C 201.464,93.0944 201.631,93.7611 201.5,94.5 Z"/></g>
<g><path style="opacity:1" fill="#38d556" d="M 201.5,94.5 C 202.252,96.1003 203.252,97.6003 204.5,99C 201.81,99.7709 199.144,100.604 196.5,101.5C 197.347,102.845 198.513,103.845 200,104.5C 201.494,103.253 202.994,103.253 204.5,104.5C 205.524,105.852 206.524,107.185 207.5,108.5C 206.833,108.5 206.167,108.5 205.5,108.5C 201.37,105.676 196.703,104.009 191.5,103.5C 190.048,102.698 188.382,102.198 186.5,102C 179.508,101.5 172.508,101.334 165.5,101.5C 165.5,101.167 165.5,100.833 165.5,100.5C 168.391,99.5975 171.391,99.2641 174.5,99.5C 177.836,99.533 181.003,98.8664 184,97.5C 184.317,99.3008 184.984,99.6341 186,98.5C 187.066,100.099 188.566,101.099 190.5,101.5C 192.311,100.173 194.311,99.1735 196.5,98.5C 194.922,97.7022 193.256,97.2022 191.5,97C 195.004,96.6967 198.338,95.8634 201.5,94.5 Z"/></g>
<g><path style="opacity:1" fill="#48c55d" d="M 144.5,91.5 C 141.699,94.6401 138.366,96.9735 134.5,98.5C 131.231,100.349 127.898,102.016 124.5,103.5C 124.833,102.833 125.167,102.167 125.5,101.5C 131.067,96.8815 137.4,93.5482 144.5,91.5 Z"/></g>
<g><path style="opacity:0.875" fill="#47b964" d="M 214.5,96.5 C 214.5,96.1667 214.5,95.8333 214.5,95.5C 217.511,96.6693 220.178,98.336 222.5,100.5C 219.481,99.7254 216.814,98.3921 214.5,96.5 Z"/></g>
<g><path style="opacity:1" fill="#31d94f" d="M 126.5,109.5 C 125.11,108.101 124.11,106.434 123.5,104.5C 123.5,103.833 123.833,103.5 124.5,103.5C 127.898,102.016 131.231,100.349 134.5,98.5C 138.112,97.4886 141.779,97.3219 145.5,98C 147.988,101.353 151.154,102.187 155,100.5C 155.667,101.167 155.667,101.833 155,102.5C 148.512,103.332 142.678,105.665 137.5,109.5C 133.79,110.758 130.123,110.758 126.5,109.5 Z"/></g>
<g><path style="opacity:0.114" fill="#56b467" d="M 164.5,102.5 C 164.5,101.833 164.833,101.5 165.5,101.5C 172.508,101.334 179.508,101.5 186.5,102C 188.382,102.198 190.048,102.698 191.5,103.5C 182.524,102.692 173.524,102.358 164.5,102.5 Z"/></g>
<g><path style="opacity:1" fill="#33d851" d="M 214.5,96.5 C 216.814,98.3921 219.481,99.7254 222.5,100.5C 223.634,103.034 225.634,104.367 228.5,104.5C 229.539,106.531 231.205,107.864 233.5,108.5C 235.167,109.5 236.5,110.833 237.5,112.5C 238.419,115.089 240.086,117.089 242.5,118.5C 242.5,119.167 242.5,119.833 242.5,120.5C 240.577,119.882 238.577,120.215 236.5,121.5C 235.975,117.304 233.641,115.304 229.5,115.5C 230.38,113.611 230.38,111.611 229.5,109.5C 225.913,109.195 222.913,110.362 220.5,113C 221.448,113.483 222.448,113.649 223.5,113.5C 223.719,114.675 223.386,115.675 222.5,116.5C 218.988,114.466 215.655,112.299 212.5,110C 213.622,108.387 213.122,107.22 211,106.5C 210.283,107.044 209.783,107.711 209.5,108.5C 208.833,108.5 208.167,108.5 207.5,108.5C 206.524,107.185 205.524,105.852 204.5,104.5C 202.994,103.253 201.494,103.253 200,104.5C 198.513,103.845 197.347,102.845 196.5,101.5C 199.144,100.604 201.81,99.7709 204.5,99C 203.252,97.6003 202.252,96.1003 201.5,94.5C 202.15,94.1961 202.817,93.8627 203.5,93.5C 206.751,95.8789 210.418,96.8789 214.5,96.5 Z"/></g>
<g><path style="opacity:0.875" fill="#4ab862" d="M 222.5,100.5 C 224.853,101.34 226.853,102.674 228.5,104.5C 225.634,104.367 223.634,103.034 222.5,100.5 Z"/></g>
<g><path style="opacity:0.663" fill="#51ba69" d="M 191.5,103.5 C 196.703,104.009 201.37,105.676 205.5,108.5C 200.607,107.204 195.94,105.538 191.5,103.5 Z"/></g>
<g><path style="opacity:0.42" fill="#41b662" d="M 228.5,104.5 C 230.754,105.124 232.421,106.457 233.5,108.5C 231.205,107.864 229.539,106.531 228.5,104.5 Z"/></g>
<g><path style="opacity:0.302" fill="#4cbe62" d="M 154.5,104.5 C 149.992,106.676 145.325,108.676 140.5,110.5C 144.351,106.662 149.017,104.662 154.5,104.5 Z"/></g>
<g><path style="opacity:0.773" fill="#51ba60" d="M 125.5,101.5 C 125.167,102.167 124.833,102.833 124.5,103.5C 123.833,103.5 123.5,103.833 123.5,104.5C 117.537,108.795 112.204,113.795 107.5,119.5C 107.167,119.5 106.833,119.5 106.5,119.5C 111.545,112.121 117.878,106.121 125.5,101.5 Z"/></g>
<g><path style="opacity:0.949" fill="#4dc364" d="M 205.5,108.5 C 206.167,108.5 206.833,108.5 207.5,108.5C 208.167,108.5 208.833,108.5 209.5,108.5C 211.342,110.052 213.009,111.718 214.5,113.5C 211.24,112.226 208.24,110.56 205.5,108.5 Z"/></g>
<g><path style="opacity:1" fill="#33d84e" d="M 123.5,104.5 C 124.11,106.434 125.11,108.101 126.5,109.5C 125.265,111.957 123.265,113.29 120.5,113.5C 120.238,114.978 120.571,116.311 121.5,117.5C 123.55,116.923 124.55,115.59 124.5,113.5C 126.167,113.5 127.833,113.5 129.5,113.5C 129.5,114.5 129.5,115.5 129.5,116.5C 129.167,117.167 128.833,117.833 128.5,118.5C 125.907,119.754 123.573,121.42 121.5,123.5C 120.069,123.119 119.236,122.119 119,120.5C 114.578,121.674 114.411,123.341 118.5,125.5C 117.147,126.524 116.48,127.857 116.5,129.5C 114.486,129.608 112.82,128.942 111.5,127.5C 109.836,125.003 108.503,122.337 107.5,119.5C 112.204,113.795 117.537,108.795 123.5,104.5 Z"/></g>
<g><path style="opacity:0.039" fill="#4bb563" d="M 138.5,111.5 C 138.027,112.906 137.027,113.573 135.5,113.5C 135.973,112.094 136.973,111.427 138.5,111.5 Z"/></g>
<g><path style="opacity:1" fill="#38d457" d="M 229.5,115.5 C 228.063,116.725 226.396,117.725 224.5,118.5C 226.743,119.474 229.076,119.808 231.5,119.5C 231.326,121.861 230.993,124.194 230.5,126.5C 231.5,126.5 232.5,126.5 233.5,126.5C 233.433,127.959 233.766,129.292 234.5,130.5C 233.833,130.5 233.167,130.5 232.5,130.5C 232.5,128.5 231.5,127.5 229.5,127.5C 225.102,122.099 220.102,117.433 214.5,113.5C 213.009,111.718 211.342,110.052 209.5,108.5C 209.783,107.711 210.283,107.044 211,106.5C 213.122,107.22 213.622,108.387 212.5,110C 215.655,112.299 218.988,114.466 222.5,116.5C 223.386,115.675 223.719,114.675 223.5,113.5C 222.448,113.649 221.448,113.483 220.5,113C 222.913,110.362 225.913,109.195 229.5,109.5C 230.38,111.611 230.38,113.611 229.5,115.5 Z"/></g>
<g><path style="opacity:0.663" fill="#40bc5b" d="M 237.5,112.5 C 239.914,113.911 241.581,115.911 242.5,118.5C 240.086,117.089 238.419,115.089 237.5,112.5 Z"/></g>
<g><path style="opacity:0.047" fill="#4ab55e" d="M 135.5,113.5 C 133.45,115.547 131.117,117.214 128.5,118.5C 128.833,117.833 129.167,117.167 129.5,116.5C 131.216,114.975 133.216,113.975 135.5,113.5 Z"/></g>
<g><path style="opacity:0.773" fill="#40bd5f" d="M 242.5,118.5 C 244.587,119.585 245.92,121.251 246.5,123.5C 245.833,123.167 245.167,122.833 244.5,122.5C 244.167,121.5 243.5,120.833 242.5,120.5C 242.5,119.833 242.5,119.167 242.5,118.5 Z"/></g>
<g><path style="opacity:0.773" fill="#4dc063" d="M 106.5,119.5 C 105.148,122.165 103.482,124.498 101.5,126.5C 102.01,123.326 103.677,120.992 106.5,119.5 Z"/></g>
<g><path style="opacity:1" fill="#39d159" d="M 121.5,123.5 C 120.89,124.391 120.557,125.391 120.5,126.5C 119.876,128.754 118.543,130.421 116.5,131.5C 113.916,132.048 112.916,133.715 113.5,136.5C 112.071,139.696 110.405,142.696 108.5,145.5C 108.489,143.453 108.156,141.453 107.5,139.5C 107.824,137.431 108.658,137.098 110,138.5C 110.492,137.451 110.326,136.451 109.5,135.5C 110.325,134.614 111.325,134.281 112.5,134.5C 112.33,133.178 112.663,132.011 113.5,131C 112.5,130.167 111.5,129.333 110.5,128.5C 110.624,127.893 110.957,127.56 111.5,127.5C 112.82,128.942 114.486,129.608 116.5,129.5C 116.48,127.857 117.147,126.524 118.5,125.5C 114.411,123.341 114.578,121.674 119,120.5C 119.236,122.119 120.069,123.119 121.5,123.5 Z"/></g>
<g><path style="opacity:0.106" fill="#51b960" d="M 128.5,118.5 C 126.167,121.5 123.5,124.167 120.5,126.5C 120.557,125.391 120.89,124.391 121.5,123.5C 123.573,121.42 125.907,119.754 128.5,118.5 Z"/></g>
<g><path style="opacity:1" fill="#2fda50" d="M 229.5,115.5 C 233.641,115.304 235.975,117.304 236.5,121.5C 238.577,120.215 240.577,119.882 242.5,120.5C 243.5,120.833 244.167,121.5 244.5,122.5C 244.993,129.473 243.993,129.973 241.5,124C 238.343,123.783 237.176,125.283 238,128.5C 238.667,129.833 239.333,129.833 240,128.5C 239.993,134.268 238.993,134.601 237,129.5C 236.329,130.252 235.496,130.586 234.5,130.5C 233.766,129.292 233.433,127.959 233.5,126.5C 232.5,126.5 231.5,126.5 230.5,126.5C 230.993,124.194 231.326,121.861 231.5,119.5C 229.076,119.808 226.743,119.474 224.5,118.5C 226.396,117.725 228.063,116.725 229.5,115.5 Z"/></g>
<g><path style="opacity:1" fill="#43c45b" d="M 246.5,123.5 C 248.326,125.147 249.66,127.147 250.5,129.5C 247.196,128.856 245.862,126.856 246.5,123.5 Z"/></g>
<g><path style="opacity:0.537" fill="#4ab361" d="M 229.5,127.5 C 231.5,127.5 232.5,128.5 232.5,130.5C 231.167,129.833 230.167,128.833 229.5,127.5 Z"/></g>
<g><path style="opacity:1" fill="#32d851" d="M 106.5,119.5 C 106.833,119.5 107.167,119.5 107.5,119.5C 108.503,122.337 109.836,125.003 111.5,127.5C 110.957,127.56 110.624,127.893 110.5,128.5C 111.5,129.333 112.5,130.167 113.5,131C 112.663,132.011 112.33,133.178 112.5,134.5C 111.325,134.281 110.325,134.614 109.5,135.5C 110.326,136.451 110.492,137.451 110,138.5C 108.658,137.098 107.824,137.431 107.5,139.5C 108.156,141.453 108.489,143.453 108.5,145.5C 108.5,145.833 108.5,146.167 108.5,146.5C 106.821,146.892 105.154,147.392 103.5,148C 103.833,148.333 104.167,148.667 104.5,149C 103.725,152.791 103.059,156.624 102.5,160.5C 101.272,161.306 100.272,162.306 99.5,163.5C 98.0426,159.931 96.0426,156.598 93.5,153.5C 92.5481,151.955 92.2148,150.288 92.5,148.5C 94.1024,144.685 95.1024,140.685 95.5,136.5C 97.0002,132.827 99.0002,129.494 101.5,126.5C 103.482,124.498 105.148,122.165 106.5,119.5 Z"/></g>
<g><path style="opacity:1" fill="#4ac562" d="M 232.5,130.5 C 233.167,130.5 233.833,130.5 234.5,130.5C 236.823,133.135 238.656,136.135 240,139.5C 240.977,141.74 241.477,144.073 241.5,146.5C 238.569,141.209 235.569,135.875 232.5,130.5 Z"/></g>
<g><path style="opacity:0.549" fill="#52b563" d="M 151.5,131.5 C 152.906,131.973 153.573,132.973 153.5,134.5C 152.094,134.027 151.427,133.027 151.5,131.5 Z"/></g>
<g><path style="opacity:1" fill="#33d752" d="M 244.5,122.5 C 245.167,122.833 245.833,123.167 246.5,123.5C 245.862,126.856 247.196,128.856 250.5,129.5C 252.341,131.849 253.674,134.515 254.5,137.5C 254.5,138.5 254.5,139.5 254.5,140.5C 253.551,141.923 252.551,143.423 251.5,145C 253.52,147.621 253.853,150.455 252.5,153.5C 250.813,150.91 249.813,148.076 249.5,145C 250.857,141.362 251.524,137.529 251.5,133.5C 250.5,133.5 249.5,133.5 248.5,133.5C 248.664,136.187 248.497,138.854 248,141.5C 247.667,140.833 247.333,140.167 247,139.5C 245.959,141.585 244.459,143.252 242.5,144.5C 245.926,148.538 247.259,153.205 246.5,158.5C 246.02,155.922 245.02,153.588 243.5,151.5C 243.88,149.302 243.213,147.635 241.5,146.5C 241.477,144.073 240.977,141.74 240,139.5C 238.656,136.135 236.823,133.135 234.5,130.5C 235.496,130.586 236.329,130.252 237,129.5C 238.993,134.601 239.993,134.268 240,128.5C 239.333,129.833 238.667,129.833 238,128.5C 237.176,125.283 238.343,123.783 241.5,124C 243.993,129.973 244.993,129.473 244.5,122.5 Z"/></g>
<g><path style="opacity:0.773" fill="#41c05f" d="M 116.5,131.5 C 115.89,133.434 114.89,135.101 113.5,136.5C 112.916,133.715 113.916,132.048 116.5,131.5 Z"/></g>
<g><path style="opacity:0.773" fill="#4fbb64" d="M 150.5,131.5 C 142.977,130.448 137.31,133.115 133.5,139.5C 133.167,139.5 132.833,139.5 132.5,139.5C 135.089,133.912 139.422,130.579 145.5,129.5C 147.422,129.801 149.088,130.467 150.5,131.5 Z"/></g>
<g><path style="opacity:0.875" fill="#47c268" d="M 153.5,134.5 C 155.065,136.509 156.065,138.843 156.5,141.5C 154.166,139.824 153.166,137.491 153.5,134.5 Z"/></g>
<g><path style="opacity:1" fill="#48cb63" d="M 132.5,139.5 C 132.833,139.5 133.167,139.5 133.5,139.5C 133.5,140.833 133.5,142.167 133.5,143.5C 132.21,144.058 131.377,145.058 131,146.5C 130.502,149.817 130.335,153.15 130.5,156.5C 129.523,153.713 129.19,150.713 129.5,147.5C 129.415,144.351 130.415,141.684 132.5,139.5 Z"/></g>
<g><path style="opacity:1" fill="#33d851" d="M 133.5,143.5 C 135.125,149.816 136.459,149.816 137.5,143.5C 139.5,143.5 141.5,143.5 143.5,143.5C 142.403,149.201 141.07,154.868 139.5,160.5C 140.385,163.323 142.052,163.99 144.5,162.5C 145.192,163.025 145.692,163.692 146,164.5C 146.708,163.619 147.542,162.953 148.5,162.5C 149.478,162.811 150.145,163.478 150.5,164.5C 148.955,165.452 147.288,165.785 145.5,165.5C 145.5,166.5 145.5,167.5 145.5,168.5C 145.631,169.376 145.298,170.043 144.5,170.5C 141.536,168.578 139.536,165.911 138.5,162.5C 136.79,163.887 135.123,165.221 133.5,166.5C 133.167,166.5 132.833,166.5 132.5,166.5C 131.069,165.22 130.402,163.553 130.5,161.5C 130.5,159.833 130.5,158.167 130.5,156.5C 130.335,153.15 130.502,149.817 131,146.5C 131.377,145.058 132.21,144.058 133.5,143.5 Z"/></g>
<g><path style="opacity:0.773" fill="#48c161" d="M 95.5,136.5 C 95.1024,140.685 94.1024,144.685 92.5,148.5C 91.8333,149.167 91.1667,149.833 90.5,150.5C 91.3928,145.483 93.0595,140.817 95.5,136.5 Z"/></g>
<g><path style="opacity:1" fill="#2fda4e" d="M 150.5,155.5 C 149.833,157.833 149.167,160.167 148.5,162.5C 147.542,162.953 146.708,163.619 146,164.5C 145.692,163.692 145.192,163.025 144.5,162.5C 142.052,163.99 140.385,163.323 139.5,160.5C 141.07,154.868 142.403,149.201 143.5,143.5C 141.5,143.5 139.5,143.5 137.5,143.5C 136.459,149.816 135.125,149.816 133.5,143.5C 133.977,141.01 135.311,139.01 137.5,137.5C 139.411,139.702 141.745,141.369 144.5,142.5C 145.609,141.41 146.609,141.41 147.5,142.5C 146.585,143.328 145.919,144.328 145.5,145.5C 146.064,147.819 146.564,150.153 147,152.5C 147.72,154.056 148.887,155.056 150.5,155.5 Z"/></g>
<g><path style="opacity:1" fill="#32d853" d="M 150.5,131.5 C 150.833,131.5 151.167,131.5 151.5,131.5C 151.427,133.027 152.094,134.027 153.5,134.5C 153.166,137.491 154.166,139.824 156.5,141.5C 156.5,141.833 156.5,142.167 156.5,142.5C 156.5,144.5 156.5,146.5 156.5,148.5C 154.747,145.854 153.747,142.854 153.5,139.5C 150.757,139.077 149.424,140.244 149.5,143C 151.334,147.128 151.667,151.295 150.5,155.5C 148.887,155.056 147.72,154.056 147,152.5C 146.564,150.153 146.064,147.819 145.5,145.5C 145.919,144.328 146.585,143.328 147.5,142.5C 146.609,141.41 145.609,141.41 144.5,142.5C 141.745,141.369 139.411,139.702 137.5,137.5C 135.311,139.01 133.977,141.01 133.5,143.5C 133.5,142.167 133.5,140.833 133.5,139.5C 137.31,133.115 142.977,130.448 150.5,131.5 Z"/></g>
<g><path style="opacity:0.875" fill="#48c964" d="M 156.5,142.5 C 158.531,146.237 160.198,150.237 161.5,154.5C 160.965,156.261 159.965,157.594 158.5,158.5C 158.665,155.482 158.498,152.482 158,149.5C 157.617,148.944 157.117,148.611 156.5,148.5C 156.5,146.5 156.5,144.5 156.5,142.5 Z"/></g>
<g><path style="opacity:0.549" fill="#53ba68" d="M 241.5,146.5 C 243.213,147.635 243.88,149.302 243.5,151.5C 242.463,150.07 241.796,148.403 241.5,146.5 Z"/></g>
<g><path style="opacity:1" fill="#3dc85c" d="M 254.5,137.5 C 256.065,139.509 257.065,141.843 257.5,144.5C 257.41,147.152 258.076,149.485 259.5,151.5C 261.011,154.544 261.678,157.878 261.5,161.5C 260.985,159.249 259.985,157.249 258.5,155.5C 257.483,150.377 256.15,145.377 254.5,140.5C 254.5,139.5 254.5,138.5 254.5,137.5 Z"/></g>
<g><path style="opacity:0.514" fill="#40b45e" d="M 257.5,144.5 C 258.924,146.515 259.59,148.848 259.5,151.5C 258.076,149.485 257.41,147.152 257.5,144.5 Z"/></g>
<g><path style="opacity:0.196" fill="#5ab368" d="M 129.5,147.5 C 129.19,150.713 129.523,153.713 130.5,156.5C 130.5,158.167 130.5,159.833 130.5,161.5C 128.442,156.928 128.109,152.262 129.5,147.5 Z"/></g>
<g><path style="opacity:1" fill="#33d750" d="M 156.5,148.5 C 157.117,148.611 157.617,148.944 158,149.5C 158.498,152.482 158.665,155.482 158.5,158.5C 157.5,158.5 156.5,158.5 155.5,158.5C 155.5,159.5 155.5,160.5 155.5,161.5C 154.178,161.67 153.011,161.337 152,160.5C 151.502,163.482 151.335,166.482 151.5,169.5C 149.588,169.512 147.588,169.179 145.5,168.5C 145.5,167.5 145.5,166.5 145.5,165.5C 147.288,165.785 148.955,165.452 150.5,164.5C 150.145,163.478 149.478,162.811 148.5,162.5C 149.167,160.167 149.833,157.833 150.5,155.5C 151.667,151.295 151.334,147.128 149.5,143C 149.424,140.244 150.757,139.077 153.5,139.5C 153.747,142.854 154.747,145.854 156.5,148.5 Z"/></g>
<g><path style="opacity:0.875" fill="#45c162" d="M 90.5,150.5 C 90.6641,153.187 90.4974,155.854 90,158.5C 89.6174,159.056 89.1174,159.389 88.5,159.5C 88.4203,156.219 89.087,153.219 90.5,150.5 Z"/></g>
<g><path style="opacity:1" fill="#30d94d" d="M 254.5,140.5 C 256.15,145.377 257.483,150.377 258.5,155.5C 258.721,159.795 257.388,160.462 254.5,157.5C 253.509,161.445 253.176,165.445 253.5,169.5C 253.799,171.604 253.466,173.604 252.5,175.5C 251.833,172.5 251.167,169.5 250.5,166.5C 249.817,166.137 249.15,165.804 248.5,165.5C 248.5,163.5 248.5,161.5 248.5,159.5C 249.5,159.5 250.5,159.5 251.5,159.5C 251.5,158.5 251.5,157.5 251.5,156.5C 249.486,156.392 247.82,157.058 246.5,158.5C 247.259,153.205 245.926,148.538 242.5,144.5C 244.459,143.252 245.959,141.585 247,139.5C 247.333,140.167 247.667,140.833 248,141.5C 248.497,138.854 248.664,136.187 248.5,133.5C 249.5,133.5 250.5,133.5 251.5,133.5C 251.524,137.529 250.857,141.362 249.5,145C 249.813,148.076 250.813,150.91 252.5,153.5C 253.853,150.455 253.52,147.621 251.5,145C 252.551,143.423 253.551,141.923 254.5,140.5 Z"/></g>
<g><path style="opacity:1" fill="#31d854" d="M 92.5,148.5 C 92.2148,150.288 92.5481,151.955 93.5,153.5C 96.0426,156.598 98.0426,159.931 99.5,163.5C 99.5,164.833 99.5,166.167 99.5,167.5C 98.6829,169.969 98.1829,172.635 98,175.5C 97.6667,172.833 97.3333,170.167 97,167.5C 96.6667,168.833 96.3333,170.167 96,171.5C 95.1296,167.808 94.2963,164.475 93.5,161.5C 90.8982,165.951 89.2316,170.617 88.5,175.5C 88.5,170.167 88.5,164.833 88.5,159.5C 89.1174,159.389 89.6174,159.056 90,158.5C 90.4974,155.854 90.6641,153.187 90.5,150.5C 91.1667,149.833 91.8333,149.167 92.5,148.5 Z"/></g>
<g><path style="opacity:0.537" fill="#4cb960" d="M 243.5,151.5 C 245.02,153.588 246.02,155.922 246.5,158.5C 246.5,160.833 246.5,163.167 246.5,165.5C 245.266,161.006 244.266,156.339 243.5,151.5 Z"/></g>
<g><path style="opacity:1" fill="#40c85c" d="M 158.5,158.5 C 156.85,161.156 155.184,163.822 153.5,166.5C 154.178,168.516 154.844,170.516 155.5,172.5C 153.878,171.878 152.545,170.878 151.5,169.5C 151.335,166.482 151.502,163.482 152,160.5C 153.011,161.337 154.178,161.67 155.5,161.5C 155.5,160.5 155.5,159.5 155.5,158.5C 156.5,158.5 157.5,158.5 158.5,158.5 Z"/></g>
<g><path style="opacity:1" fill="#33d753" d="M 258.5,155.5 C 259.985,157.249 260.985,159.249 261.5,161.5C 261.5,166.167 261.5,170.833 261.5,175.5C 260.681,172.695 260.181,169.695 260,166.5C 256.903,170.074 256.403,173.741 258.5,177.5C 258.547,179 257.881,180 256.5,180.5C 255.266,176.67 254.266,173.003 253.5,169.5C 253.176,165.445 253.509,161.445 254.5,157.5C 257.388,160.462 258.721,159.795 258.5,155.5 Z"/></g>
<g><path style="opacity:0.949" fill="#4ac15e" d="M 132.5,166.5 C 132.833,166.5 133.167,166.5 133.5,166.5C 134.404,167.209 134.737,168.209 134.5,169.5C 136.545,170.923 137.545,172.923 137.5,175.5C 134.595,173.244 132.928,170.244 132.5,166.5 Z"/></g>
<g><path style="opacity:1" fill="#31d94f" d="M 248.5,165.5 C 249.15,165.804 249.817,166.137 250.5,166.5C 251.167,169.5 251.833,172.5 252.5,175.5C 253.466,173.604 253.799,171.604 253.5,169.5C 254.266,173.003 255.266,176.67 256.5,180.5C 257.881,180 258.547,179 258.5,177.5C 256.403,173.741 256.903,170.074 260,166.5C 260.181,169.695 260.681,172.695 261.5,175.5C 260.621,181.223 259.621,186.889 258.5,192.5C 257.732,193.263 257.232,194.263 257,195.5C 256.667,195.167 256.333,194.833 256,194.5C 255.667,191.167 255.333,187.833 255,184.5C 254.023,186.74 253.523,189.073 253.5,191.5C 252.178,191.33 251.011,191.663 250,192.5C 248.619,183.568 248.119,174.568 248.5,165.5 Z"/></g>
<g><path style="opacity:1" fill="#30d950" d="M 99.5,167.5 C 98.873,171.87 99.5397,176.203 101.5,180.5C 101.36,182.03 100.693,183.03 99.5,183.5C 99.19,182.262 98.69,182.262 98,183.5C 97.6667,185.5 97.3333,187.5 97,189.5C 96.3763,187.246 95.043,185.579 93,184.5C 92.6667,185.167 92.3333,185.833 92,186.5C 92.1554,184.189 92.1554,181.856 92,179.5C 90.8873,180.305 89.7206,180.972 88.5,181.5C 88.5,179.5 88.5,177.5 88.5,175.5C 89.2316,170.617 90.8982,165.951 93.5,161.5C 94.2963,164.475 95.1296,167.808 96,171.5C 96.3333,170.167 96.6667,168.833 97,167.5C 97.3333,170.167 97.6667,172.833 98,175.5C 98.1829,172.635 98.6829,169.969 99.5,167.5 Z"/></g>
<g><path style="opacity:1" fill="#3ac858" d="M 155.5,172.5 C 157.547,174.55 159.214,176.883 160.5,179.5C 158.515,178.953 156.849,177.953 155.5,176.5C 155.5,175.167 155.5,173.833 155.5,172.5 Z"/></g>
<g><path style="opacity:0.545" fill="#4cb963" d="M 137.5,176.5 C 140.353,177.833 142.019,180.166 142.5,183.5C 140.478,181.469 138.811,179.135 137.5,176.5 Z"/></g>
<g><path style="opacity:1" fill="#30d94f" d="M 145.5,168.5 C 147.588,169.179 149.588,169.512 151.5,169.5C 152.545,170.878 153.878,171.878 155.5,172.5C 155.5,173.833 155.5,175.167 155.5,176.5C 156.486,178.844 157.819,181.011 159.5,183C 159.333,183.833 159.167,184.667 159,185.5C 157.663,184.235 156.163,183.735 154.5,184C 154.012,186.176 153.012,188.009 151.5,189.5C 148.087,187.016 145.921,183.682 145,179.5C 144.107,180.711 143.274,180.711 142.5,179.5C 142.422,175.615 141.089,171.948 138.5,168.5C 137.264,169.246 135.93,169.579 134.5,169.5C 134.737,168.209 134.404,167.209 133.5,166.5C 135.123,165.221 136.79,163.887 138.5,162.5C 139.536,165.911 141.536,168.578 144.5,170.5C 145.298,170.043 145.631,169.376 145.5,168.5 Z"/></g>
<g><path style="opacity:1" fill="#36d551" d="M 102.5,160.5 C 102.334,169.839 102.5,179.173 103,188.5C 103.383,189.056 103.883,189.389 104.5,189.5C 105.87,192.619 106.87,195.952 107.5,199.5C 106.735,198.34 105.735,197.34 104.5,196.5C 103.481,198.46 103.481,200.46 104.5,202.5C 103.883,202.389 103.383,202.056 103,201.5C 102.333,202.833 101.667,204.167 101,205.5C 99.77,203.98 98.6033,203.147 97.5,203C 99.4611,201.021 100.794,198.688 101.5,196C 101.833,193.333 100.833,191.333 98.5,190C 99.4231,187.959 99.7564,185.792 99.5,183.5C 100.693,183.03 101.36,182.03 101.5,180.5C 99.5397,176.203 98.873,171.87 99.5,167.5C 99.5,166.167 99.5,164.833 99.5,163.5C 100.272,162.306 101.272,161.306 102.5,160.5 Z"/></g>
<g><path style="opacity:1" fill="#35d655" d="M 155.5,176.5 C 156.849,177.953 158.515,178.953 160.5,179.5C 163.167,181.833 165.833,184.167 168.5,186.5C 169.422,191.415 172.422,193.749 177.5,193.5C 178.492,193.328 179.158,193.662 179.5,194.5C 179.833,195.167 180.167,195.833 180.5,196.5C 179.833,196.5 179.167,196.5 178.5,196.5C 175.009,194.861 171.343,193.361 167.5,192C 165.197,187.32 162.197,186.653 158.5,190C 159.76,191.814 159.76,193.647 158.5,195.5C 157.005,194.295 155.672,194.295 154.5,195.5C 153.833,195.5 153.167,195.5 152.5,195.5C 149.622,191.051 146.289,187.051 142.5,183.5C 142.019,180.166 140.353,177.833 137.5,176.5C 137.5,176.167 137.5,175.833 137.5,175.5C 137.545,172.923 136.545,170.923 134.5,169.5C 135.93,169.579 137.264,169.246 138.5,168.5C 141.089,171.948 142.422,175.615 142.5,179.5C 143.274,180.711 144.107,180.711 145,179.5C 145.921,183.682 148.087,187.016 151.5,189.5C 153.012,188.009 154.012,186.176 154.5,184C 156.163,183.735 157.663,184.235 159,185.5C 159.167,184.667 159.333,183.833 159.5,183C 157.819,181.011 156.486,178.844 155.5,176.5 Z"/></g>
<g><path style="opacity:0.549" fill="#4eb661" d="M 142.5,183.5 C 146.289,187.051 149.622,191.051 152.5,195.5C 148.224,192.279 144.891,188.279 142.5,183.5 Z"/></g>
<g><path style="opacity:0.773" fill="#4caf66" d="M 201.5,186.5 C 199.473,186.338 197.473,186.505 195.5,187C 194.922,188.417 193.922,189.25 192.5,189.5C 194.436,184.68 197.436,183.68 201.5,186.5 Z"/></g>
<g><path style="opacity:1" fill="#32d851" d="M 99.5,183.5 C 99.7564,185.792 99.4231,187.959 98.5,190C 100.833,191.333 101.833,193.333 101.5,196C 100.794,198.688 99.4611,201.021 97.5,203C 98.6033,203.147 99.77,203.98 101,205.5C 101.667,204.167 102.333,202.833 103,201.5C 103.383,202.056 103.883,202.389 104.5,202.5C 105.694,204.484 105.694,206.484 104.5,208.5C 101.916,209.393 99.2492,209.726 96.5,209.5C 91.7016,200.883 89.0349,191.549 88.5,181.5C 89.7206,180.972 90.8873,180.305 92,179.5C 92.1554,181.856 92.1554,184.189 92,186.5C 92.3333,185.833 92.6667,185.167 93,184.5C 95.043,185.579 96.3763,187.246 97,189.5C 97.3333,187.5 97.6667,185.5 98,183.5C 98.69,182.262 99.19,182.262 99.5,183.5 Z"/></g>
<g><path style="opacity:0.949" fill="#45c75c" d="M 108.5,146.5 C 103.551,160.45 102.217,174.783 104.5,189.5C 103.883,189.389 103.383,189.056 103,188.5C 102.5,179.173 102.334,169.839 102.5,160.5C 103.059,156.624 103.725,152.791 104.5,149C 104.167,148.667 103.833,148.333 103.5,148C 105.154,147.392 106.821,146.892 108.5,146.5 Z"/></g>
<g><path style="opacity:1" fill="#39d456" d="M 248.5,165.5 C 248.119,174.568 248.619,183.568 250,192.5C 251.011,191.663 252.178,191.33 253.5,191.5C 253.523,189.073 254.023,186.74 255,184.5C 255.333,187.833 255.667,191.167 256,194.5C 256.333,194.833 256.667,195.167 257,195.5C 257.232,194.263 257.732,193.263 258.5,192.5C 257.121,197.397 256.121,202.397 255.5,207.5C 254.873,211.42 253.207,214.753 250.5,217.5C 251.017,211.561 252.017,205.728 253.5,200C 253.167,198.5 252.833,197 252.5,195.5C 250.059,196.741 248.559,198.741 248,201.5C 244.779,204.728 243.279,204.062 243.5,199.5C 245.775,193.728 246.775,187.728 246.5,181.5C 246.5,176.167 246.5,170.833 246.5,165.5C 246.5,163.167 246.5,160.833 246.5,158.5C 247.82,157.058 249.486,156.392 251.5,156.5C 251.5,157.5 251.5,158.5 251.5,159.5C 250.5,159.5 249.5,159.5 248.5,159.5C 248.5,161.5 248.5,163.5 248.5,165.5 Z"/></g>
<g><path style="opacity:1" fill="#4dbb5f" d="M 168.5,186.5 C 171.72,188.603 174.72,190.936 177.5,193.5C 172.422,193.749 169.422,191.415 168.5,186.5 Z"/></g>
<g><path style="opacity:1" fill="#31d950" d="M 201.5,186.5 C 202.492,186.328 203.158,186.662 203.5,187.5C 206.76,191.502 211.093,193.835 216.5,194.5C 218.807,198.974 219.14,203.641 217.5,208.5C 215.167,210.167 213.167,212.167 211.5,214.5C 206.956,214.759 202.456,215.426 198,216.5C 194.859,216.462 192.192,215.462 190,213.5C 187.133,215.133 184.633,214.8 182.5,212.5C 182.414,211.504 182.748,210.671 183.5,210C 181.045,209.606 179.045,208.44 177.5,206.5C 178.167,205.833 178.833,205.167 179.5,204.5C 178.289,203.28 178.289,202.113 179.5,201C 176.932,199.603 177.099,198.436 180,197.5C 184.398,197.605 188.565,198.105 192.5,199C 190.561,198.092 189.561,196.592 189.5,194.5C 190.925,193.078 191.925,191.411 192.5,189.5C 193.922,189.25 194.922,188.417 195.5,187C 197.473,186.505 199.473,186.338 201.5,186.5 Z"/></g>
<g><path style="opacity:0.773" fill="#46bc62" d="M 203.5,187.5 C 208.09,189.439 212.423,191.773 216.5,194.5C 211.093,193.835 206.76,191.502 203.5,187.5 Z"/></g>
<g><path style="opacity:0.424" fill="#4cb663" d="M 192.5,189.5 C 191.925,191.411 190.925,193.078 189.5,194.5C 186.838,196.268 183.838,196.935 180.5,196.5C 180.167,195.833 179.833,195.167 179.5,194.5C 181.782,195.39 184.115,195.556 186.5,195C 188.37,192.96 190.37,191.127 192.5,189.5 Z"/></g>
<g><path style="opacity:0.773" fill="#4bbb64" d="M 152.5,195.5 C 153.167,195.5 153.833,195.5 154.5,195.5C 155.5,197.167 156.833,198.5 158.5,199.5C 158.833,200.167 159.167,200.833 159.5,201.5C 156.573,200.243 154.239,198.243 152.5,195.5 Z"/></g>
<g><path style="opacity:1" fill="#30d950" d="M 178.5,196.5 C 175.119,198.906 173.453,202.239 173.5,206.5C 171.833,206.5 170.167,206.5 168.5,206.5C 168.863,204.089 167.863,202.589 165.5,202C 165.833,201.667 166.167,201.333 166.5,201C 163.793,200.605 161.127,200.105 158.5,199.5C 156.833,198.5 155.5,197.167 154.5,195.5C 155.672,194.295 157.005,194.295 158.5,195.5C 159.76,193.647 159.76,191.814 158.5,190C 162.197,186.653 165.197,187.32 167.5,192C 171.343,193.361 175.009,194.861 178.5,196.5 Z"/></g>
<g><path style="opacity:0.875" fill="#4abe61" d="M 246.5,181.5 C 246.775,187.728 245.775,193.728 243.5,199.5C 242.978,201.219 241.978,202.552 240.5,203.5C 243.147,196.225 245.147,188.892 246.5,181.5 Z"/></g>
<g><path style="opacity:1" fill="#32d852" d="M 250.5,217.5 C 249.833,217.833 249.167,218.167 248.5,218.5C 244.641,215.815 241.975,212.149 240.5,207.5C 240.5,206.167 240.5,204.833 240.5,203.5C 241.978,202.552 242.978,201.219 243.5,199.5C 243.279,204.062 244.779,204.728 248,201.5C 248.559,198.741 250.059,196.741 252.5,195.5C 252.833,197 253.167,198.5 253.5,200C 252.017,205.728 251.017,211.561 250.5,217.5 Z"/></g>
<g><path style="opacity:0.841" fill="#54bb64" d="M 216.5,194.5 C 219.286,194.956 220.619,196.623 220.5,199.5C 220.25,202.867 219.25,205.867 217.5,208.5C 219.14,203.641 218.807,198.974 216.5,194.5 Z"/></g>
<g><path style="opacity:1" fill="#43c45e" d="M 261.5,161.5 C 264.248,177.439 262.248,192.772 255.5,207.5C 256.121,202.397 257.121,197.397 258.5,192.5C 259.621,186.889 260.621,181.223 261.5,175.5C 261.5,170.833 261.5,166.167 261.5,161.5 Z"/></g>
<g><path style="opacity:0.412" fill="#47bd60" d="M 88.5,159.5 C 88.5,164.833 88.5,170.167 88.5,175.5C 88.5,177.5 88.5,179.5 88.5,181.5C 89.0349,191.549 91.7016,200.883 96.5,209.5C 96.795,211.423 97.6283,213.09 99,214.5C 99.4966,216.81 99.6633,219.143 99.5,221.5C 99.1739,225.736 97.5073,229.402 94.5,232.5C 95.6744,227.47 97.0077,222.47 98.5,217.5C 88.3041,199.206 84.9707,179.872 88.5,159.5 Z"/></g>
<g><path style="opacity:1" fill="#32d954" d="M 189.5,194.5 C 189.561,196.592 190.561,198.092 192.5,199C 188.565,198.105 184.398,197.605 180,197.5C 177.099,198.436 176.932,199.603 179.5,201C 178.289,202.113 178.289,203.28 179.5,204.5C 178.833,205.167 178.167,205.833 177.5,206.5C 179.045,208.44 181.045,209.606 183.5,210C 182.748,210.671 182.414,211.504 182.5,212.5C 179.833,212.167 177.167,211.833 174.5,211.5C 173.191,208.549 170.857,207.216 167.5,207.5C 166.235,203.562 163.568,201.562 159.5,201.5C 159.167,200.833 158.833,200.167 158.5,199.5C 161.127,200.105 163.793,200.605 166.5,201C 166.167,201.333 165.833,201.667 165.5,202C 167.863,202.589 168.863,204.089 168.5,206.5C 170.167,206.5 171.833,206.5 173.5,206.5C 173.453,202.239 175.119,198.906 178.5,196.5C 179.167,196.5 179.833,196.5 180.5,196.5C 183.838,196.935 186.838,196.268 189.5,194.5 Z"/></g>
<g><path style="opacity:1" fill="#41c765" d="M 159.5,201.5 C 163.568,201.562 166.235,203.562 167.5,207.5C 164.109,206.471 161.443,204.471 159.5,201.5 Z"/></g>
<g><path style="opacity:0.949" fill="#49c76a" d="M 167.5,207.5 C 170.857,207.216 173.191,208.549 174.5,211.5C 171.669,210.921 169.336,209.588 167.5,207.5 Z"/></g>
<g><path style="opacity:1" fill="#4cc35e" d="M 240.5,203.5 C 240.5,204.833 240.5,206.167 240.5,207.5C 239.014,210.25 237.014,212.584 234.5,214.5C 236.25,210.665 238.25,206.999 240.5,203.5 Z"/></g>
<g><path style="opacity:1" fill="#32d94e" d="M 107.5,199.5 C 107.848,203.258 108.515,206.924 109.5,210.5C 107.833,210.5 106.167,210.5 104.5,210.5C 103.356,217.055 102.022,223.555 100.5,230C 100.935,232.867 102.101,235.367 104,237.5C 105.342,236.098 106.176,236.431 106.5,238.5C 106.457,239.416 106.124,240.083 105.5,240.5C 103.433,239.737 101.766,238.404 100.5,236.5C 99.265,237.34 98.265,238.34 97.5,239.5C 96.9231,234.919 97.9231,230.752 100.5,227C 99.5939,225.301 99.2606,223.467 99.5,221.5C 99.6633,219.143 99.4966,216.81 99,214.5C 97.6283,213.09 96.795,211.423 96.5,209.5C 99.2492,209.726 101.916,209.393 104.5,208.5C 105.694,206.484 105.694,204.484 104.5,202.5C 103.481,200.46 103.481,198.46 104.5,196.5C 105.735,197.34 106.735,198.34 107.5,199.5 Z"/></g>
<g><path style="opacity:1" fill="#3fd059" d="M 174.5,211.5 C 177.167,211.833 179.833,212.167 182.5,212.5C 184.633,214.8 187.133,215.133 190,213.5C 192.192,215.462 194.859,216.462 198,216.5C 202.456,215.426 206.956,214.759 211.5,214.5C 210.486,215.674 209.153,216.34 207.5,216.5C 199.723,218.015 192.057,217.682 184.5,215.5C 180.884,214.686 177.551,213.352 174.5,211.5 Z"/></g>
<g><path style="opacity:0.047" fill="#52b065" d="M 217.5,208.5 C 216.5,211.5 214.5,213.5 211.5,214.5C 213.167,212.167 215.167,210.167 217.5,208.5 Z"/></g>
<g><path style="opacity:0.773" fill="#4bbc67" d="M 184.5,215.5 C 192.057,217.682 199.723,218.015 207.5,216.5C 204.713,218.329 201.546,219.329 198,219.5C 193.065,219.224 188.565,217.89 184.5,215.5 Z"/></g>
<g><path style="opacity:1" fill="#34d653" d="M 240.5,207.5 C 241.975,212.149 244.641,215.815 248.5,218.5C 247.01,220.581 246.01,222.914 245.5,225.5C 245.5,226.167 245.167,226.5 244.5,226.5C 242.738,227.262 241.738,228.596 241.5,230.5C 238.5,234.167 235.167,237.5 231.5,240.5C 231.67,239.178 231.337,238.011 230.5,237C 231.701,236.097 232.535,234.931 233,233.5C 234.516,236.051 235.349,235.718 235.5,232.5C 234.325,232.719 233.325,232.386 232.5,231.5C 233.711,230.126 234.711,228.626 235.5,227C 234.681,225.681 233.681,224.515 232.5,223.5C 232.322,226.276 230.822,228.609 228,230.5C 226.594,229.586 225.094,228.92 223.5,228.5C 226.57,225.436 229.237,222.103 231.5,218.5C 231.738,216.596 232.738,215.262 234.5,214.5C 237.014,212.584 239.014,210.25 240.5,207.5 Z"/></g>
<g><path style="opacity:0.773" fill="#4abc61" d="M 250.5,217.5 C 249.617,220.704 247.95,223.371 245.5,225.5C 246.01,222.914 247.01,220.581 248.5,218.5C 249.167,218.167 249.833,217.833 250.5,217.5 Z"/></g>
<g><path style="opacity:0.541" fill="#49b85a" d="M 231.5,218.5 C 229.237,222.103 226.57,225.436 223.5,228.5C 222.395,229.6 221.062,230.267 219.5,230.5C 223.167,226.167 227.167,222.167 231.5,218.5 Z"/></g>
<g><path style="opacity:0.047" fill="#50b068" d="M 244.5,226.5 C 244.262,228.404 243.262,229.738 241.5,230.5C 241.738,228.596 242.738,227.262 244.5,226.5 Z"/></g>
<g><path style="opacity:1" fill="#30d952" d="M 109.5,210.5 C 111.74,211.587 113.073,213.42 113.5,216C 112.994,222.088 111.16,227.588 108,232.5C 107.502,235.817 107.335,239.15 107.5,242.5C 108.822,242.33 109.989,242.663 111,243.5C 112.049,241.893 113.549,241.227 115.5,241.5C 116.11,242.391 116.443,243.391 116.5,244.5C 113.592,245.569 110.592,245.736 107.5,245C 106.418,243.67 105.751,242.17 105.5,240.5C 106.124,240.083 106.457,239.416 106.5,238.5C 106.176,236.431 105.342,236.098 104,237.5C 102.101,235.367 100.935,232.867 100.5,230C 102.022,223.555 103.356,217.055 104.5,210.5C 106.167,210.5 107.833,210.5 109.5,210.5 Z"/></g>
<g><path style="opacity:1" fill="#3fce5b" d="M 107.5,199.5 C 110.419,205.007 113.086,210.673 115.5,216.5C 113.735,224.059 111.735,231.559 109.5,239C 109.833,239.5 110.167,240 110.5,240.5C 115.684,238.537 121.018,237.204 126.5,236.5C 123.345,238.904 119.679,240.571 115.5,241.5C 113.549,241.227 112.049,241.893 111,243.5C 109.989,242.663 108.822,242.33 107.5,242.5C 107.335,239.15 107.502,235.817 108,232.5C 111.16,227.588 112.994,222.088 113.5,216C 113.073,213.42 111.74,211.587 109.5,210.5C 108.515,206.924 107.848,203.258 107.5,199.5 Z"/></g>
<g><path style="opacity:1" fill="#45c35e" d="M 145.5,239.5 C 144.833,239.5 144.167,239.5 143.5,239.5C 139.753,238.621 136.087,237.621 132.5,236.5C 130.5,236.5 128.5,236.5 126.5,236.5C 129.186,235.436 132.02,234.436 135,233.5C 138.628,235.394 142.128,237.394 145.5,239.5 Z"/></g>
<g><path style="opacity:1" fill="#4ac45f" d="M 219.5,230.5 C 217.441,232.897 215.108,234.897 212.5,236.5C 211.833,236.5 211.167,236.5 210.5,236.5C 212.975,233.759 215.975,231.759 219.5,230.5 Z"/></g>
<g><path style="opacity:1" fill="#32d851" d="M 231.5,240.5 C 229.596,240.738 228.262,241.738 227.5,243.5C 223.985,244.794 220.318,245.628 216.5,246C 216.957,246.414 217.291,246.914 217.5,247.5C 215.539,248.578 213.872,249.911 212.5,251.5C 210.833,251.5 209.167,251.5 207.5,251.5C 207.762,250.022 207.429,248.689 206.5,247.5C 203.93,246.252 201.263,245.252 198.5,244.5C 200.605,242.185 203.105,241.851 206,243.5C 207.826,242.99 207.993,242.156 206.5,241C 208.5,240.667 210.5,240.333 212.5,240C 211.829,239.014 211.829,237.847 212.5,236.5C 215.108,234.897 217.441,232.897 219.5,230.5C 221.062,230.267 222.395,229.6 223.5,228.5C 225.094,228.92 226.594,229.586 228,230.5C 230.822,228.609 232.322,226.276 232.5,223.5C 233.681,224.515 234.681,225.681 235.5,227C 234.711,228.626 233.711,230.126 232.5,231.5C 233.325,232.386 234.325,232.719 235.5,232.5C 235.349,235.718 234.516,236.051 233,233.5C 232.535,234.931 231.701,236.097 230.5,237C 231.337,238.011 231.67,239.178 231.5,240.5 Z"/></g>
<g><path style="opacity:0.506" fill="#45ba5e" d="M 94.5,233.5 C 93.9474,238.806 92.6141,243.806 90.5,248.5C 91.0756,243.191 92.409,238.191 94.5,233.5 Z"/></g>
<g><path style="opacity:1" fill="#30d94f" d="M 105.5,240.5 C 105.751,242.17 106.418,243.67 107.5,245C 110.592,245.736 113.592,245.569 116.5,244.5C 116.611,245.117 116.944,245.617 117.5,246C 114.445,247.678 112.112,250.011 110.5,253C 106.238,253.371 102.071,254.204 98,255.5C 97.7213,257.12 96.8879,258.453 95.5,259.5C 91.1077,255.819 90.441,251.485 93.5,246.5C 96.1877,247.282 97.1877,248.782 96.5,251C 97.448,251.483 98.448,251.649 99.5,251.5C 99.7009,247.404 98.3676,243.904 95.5,241C 96.0442,240.283 96.7109,239.783 97.5,239.5C 98.265,238.34 99.265,237.34 100.5,236.5C 101.766,238.404 103.433,239.737 105.5,240.5 Z"/></g>
<g><path style="opacity:0.773" fill="#50be67" d="M 208.5,237.5 C 206.165,240.165 203.165,241.498 199.5,241.5C 202.256,239.796 205.256,238.463 208.5,237.5 Z"/></g>
<g><path style="opacity:1" fill="#34d654" d="M 99.5,221.5 C 99.2606,223.467 99.5939,225.301 100.5,227C 97.9231,230.752 96.9231,234.919 97.5,239.5C 96.7109,239.783 96.0442,240.283 95.5,241C 98.3676,243.904 99.7009,247.404 99.5,251.5C 98.448,251.649 97.448,251.483 96.5,251C 97.1877,248.782 96.1877,247.282 93.5,246.5C 90.441,251.485 91.1077,255.819 95.5,259.5C 95.5,259.833 95.5,260.167 95.5,260.5C 94.4324,261.434 93.099,261.768 91.5,261.5C 90.5,261.5 89.5,261.5 88.5,261.5C 89.9006,257.369 90.5673,253.036 90.5,248.5C 92.6141,243.806 93.9474,238.806 94.5,233.5C 94.5,233.167 94.5,232.833 94.5,232.5C 97.5073,229.402 99.1739,225.736 99.5,221.5 Z"/></g>
<g><path style="opacity:1" fill="#33d852" d="M 126.5,236.5 C 128.5,236.5 130.5,236.5 132.5,236.5C 131.282,237.161 129.949,237.828 128.5,238.5C 128.667,238.833 128.833,239.167 129,239.5C 131.041,240.423 133.208,240.756 135.5,240.5C 135.5,242.167 135.5,243.833 135.5,245.5C 132.978,245.128 130.978,245.961 129.5,248C 131.382,248.198 133.048,248.698 134.5,249.5C 127.474,250.586 120.808,252.586 114.5,255.5C 109.804,255.671 105.137,256.171 100.5,257C 99.3474,258.883 97.6807,259.716 95.5,259.5C 96.8879,258.453 97.7213,257.12 98,255.5C 102.071,254.204 106.238,253.371 110.5,253C 112.112,250.011 114.445,247.678 117.5,246C 116.944,245.617 116.611,245.117 116.5,244.5C 116.443,243.391 116.11,242.391 115.5,241.5C 119.679,240.571 123.345,238.904 126.5,236.5 Z"/></g>
<g><path style="opacity:1" fill="#30d94e" d="M 132.5,236.5 C 136.087,237.621 139.753,238.621 143.5,239.5C 143.611,240.117 143.944,240.617 144.5,241C 139.167,243 139.167,245 144.5,247C 142.191,251.911 138.857,252.744 134.5,249.5C 133.048,248.698 131.382,248.198 129.5,248C 130.978,245.961 132.978,245.128 135.5,245.5C 135.5,243.833 135.5,242.167 135.5,240.5C 133.208,240.756 131.041,240.423 129,239.5C 128.833,239.167 128.667,238.833 128.5,238.5C 129.949,237.828 131.282,237.161 132.5,236.5 Z"/></g>
<g><path style="opacity:0.047" fill="#4eaf64" d="M 231.5,240.5 C 230.738,242.262 229.404,243.262 227.5,243.5C 228.262,241.738 229.596,240.738 231.5,240.5 Z"/></g>
<g><path style="opacity:0.416" fill="#49be5f" d="M 145.5,239.5 C 162.94,246.509 180.607,247.175 198.5,241.5C 196.388,243.206 194.055,244.539 191.5,245.5C 180.844,246.779 170.178,246.779 159.5,245.5C 155.785,244.563 151.952,243.563 148,242.5C 146.69,241.87 145.856,240.87 145.5,239.5 Z"/></g>
<g><path style="opacity:1" fill="#33d653" d="M 143.5,239.5 C 144.167,239.5 144.833,239.5 145.5,239.5C 145.856,240.87 146.69,241.87 148,242.5C 151.952,243.563 155.785,244.563 159.5,245.5C 158.022,245.238 156.689,245.571 155.5,246.5C 156.603,246.998 157.603,247.331 158.5,247.5C 156.677,248.491 155.177,249.824 154,251.5C 152.333,250.833 150.667,250.167 149,249.5C 147.693,250.772 146.193,251.772 144.5,252.5C 146.396,253.466 148.396,253.799 150.5,253.5C 150.5,254.5 150.5,255.5 150.5,256.5C 146.227,253.997 141.561,252.664 136.5,252.5C 135.833,251.5 135.167,250.5 134.5,249.5C 138.857,252.744 142.191,251.911 144.5,247C 139.167,245 139.167,243 144.5,241C 143.944,240.617 143.611,240.117 143.5,239.5 Z"/></g>
<g><path style="opacity:0.875" fill="#4cbd62" d="M 223.5,246.5 C 222.564,247.974 221.23,248.974 219.5,249.5C 219.5,248.5 219.5,247.5 219.5,246.5C 220.833,246.5 222.167,246.5 223.5,246.5 Z"/></g>
<g><path style="opacity:1" fill="#34d655" d="M 210.5,236.5 C 211.167,236.5 211.833,236.5 212.5,236.5C 211.829,237.847 211.829,239.014 212.5,240C 210.5,240.333 208.5,240.667 206.5,241C 207.993,242.156 207.826,242.99 206,243.5C 203.105,241.851 200.605,242.185 198.5,244.5C 201.263,245.252 203.93,246.252 206.5,247.5C 207.429,248.689 207.762,250.022 207.5,251.5C 209.167,251.5 210.833,251.5 212.5,251.5C 210.781,252.022 209.448,253.022 208.5,254.5C 207.22,255.931 205.553,256.598 203.5,256.5C 200.848,256.41 198.515,257.076 196.5,258.5C 193.5,258.5 190.5,258.5 187.5,258.5C 187.369,257.624 187.702,256.957 188.5,256.5C 191.58,257.966 193.914,257.133 195.5,254C 198.33,253.131 200.997,251.964 203.5,250.5C 199.581,249.022 196.081,249.689 193,252.5C 190.108,250.557 190.608,249.223 194.5,248.5C 194.5,247.5 194.5,246.5 194.5,245.5C 193.5,245.5 192.5,245.5 191.5,245.5C 194.055,244.539 196.388,243.206 198.5,241.5C 198.833,241.5 199.167,241.5 199.5,241.5C 203.165,241.498 206.165,240.165 208.5,237.5C 208.842,236.662 209.508,236.328 210.5,236.5 Z"/></g>
<g><path style="opacity:1" fill="#40cc59" d="M 227.5,243.5 C 226.738,245.262 225.404,246.262 223.5,246.5C 222.167,246.5 220.833,246.5 219.5,246.5C 219.5,247.5 219.5,248.5 219.5,249.5C 216.226,251.97 212.559,253.636 208.5,254.5C 209.448,253.022 210.781,252.022 212.5,251.5C 213.872,249.911 215.539,248.578 217.5,247.5C 217.291,246.914 216.957,246.414 216.5,246C 220.318,245.628 223.985,244.794 227.5,243.5 Z"/></g>
<g><path style="opacity:1" fill="#31d94f" d="M 191.5,245.5 C 192.5,245.5 193.5,245.5 194.5,245.5C 194.5,246.5 194.5,247.5 194.5,248.5C 190.608,249.223 190.108,250.557 193,252.5C 196.081,249.689 199.581,249.022 203.5,250.5C 200.997,251.964 198.33,253.131 195.5,254C 193.914,257.133 191.58,257.966 188.5,256.5C 187.702,256.957 187.369,257.624 187.5,258.5C 186.833,258.5 186.167,258.5 185.5,258.5C 183.473,258.662 181.473,258.495 179.5,258C 180.167,257.667 180.833,257.333 181.5,257C 180.284,255.26 178.618,254.26 176.5,254C 170.599,252.648 164.599,251.481 158.5,250.5C 158.709,249.914 159.043,249.414 159.5,249C 165.564,247.958 171.398,248.458 177,250.5C 178.171,249.66 179.338,248.827 180.5,248C 183.833,247.667 187.167,247.333 190.5,247C 191.056,246.617 191.389,246.117 191.5,245.5 Z"/></g>
<g><path style="opacity:0.912" fill="#49c265" d="M 134.5,249.5 C 135.167,250.5 135.833,251.5 136.5,252.5C 135.183,252.179 133.849,251.846 132.5,251.5C 126.555,253.153 120.555,254.487 114.5,255.5C 120.808,252.586 127.474,250.586 134.5,249.5 Z"/></g>
<g><path style="opacity:1" fill="#34d753" d="M 159.5,245.5 C 170.178,246.779 180.844,246.779 191.5,245.5C 191.389,246.117 191.056,246.617 190.5,247C 187.167,247.333 183.833,247.667 180.5,248C 179.338,248.827 178.171,249.66 177,250.5C 171.398,248.458 165.564,247.958 159.5,249C 159.043,249.414 158.709,249.914 158.5,250.5C 164.599,251.481 170.599,252.648 176.5,254C 178.618,254.26 180.284,255.26 181.5,257C 180.833,257.333 180.167,257.667 179.5,258C 181.473,258.495 183.473,258.662 185.5,258.5C 185.389,259.117 185.056,259.617 184.5,260C 177.174,260.5 169.841,260.666 162.5,260.5C 162.167,260.5 161.833,260.5 161.5,260.5C 159.162,258.96 156.495,258.294 153.5,258.5C 152.5,257.833 151.5,257.167 150.5,256.5C 150.5,255.5 150.5,254.5 150.5,253.5C 148.396,253.799 146.396,253.466 144.5,252.5C 146.193,251.772 147.693,250.772 149,249.5C 150.667,250.167 152.333,250.833 154,251.5C 155.177,249.824 156.677,248.491 158.5,247.5C 157.603,247.331 156.603,246.998 155.5,246.5C 156.689,245.571 158.022,245.238 159.5,245.5 Z"/></g>
<g><path style="opacity:1" fill="#45c65f" d="M 136.5,252.5 C 141.561,252.664 146.227,253.997 150.5,256.5C 151.5,257.167 152.5,257.833 153.5,258.5C 147.334,257.668 141.667,255.668 136.5,252.5 Z"/></g>
<g><path style="opacity:0.663" fill="#47c15d" d="M 90.5,248.5 C 90.5673,253.036 89.9006,257.369 88.5,261.5C 87.596,260.791 87.2627,259.791 87.5,258.5C 87.8993,254.884 88.8993,251.55 90.5,248.5 Z"/></g>
<g><path style="opacity:0.949" fill="#44c05e" d="M 114.5,255.5 C 108.474,257.924 102.141,259.591 95.5,260.5C 95.5,260.167 95.5,259.833 95.5,259.5C 97.6807,259.716 99.3474,258.883 100.5,257C 105.137,256.171 109.804,255.671 114.5,255.5 Z"/></g>
<g><path style="opacity:0.043" fill="#4ead5c" d="M 203.5,256.5 C 201.485,257.924 199.152,258.59 196.5,258.5C 198.515,257.076 200.848,256.41 203.5,256.5 Z"/></g>
<g><path style="opacity:0.302" fill="#4db464" d="M 153.5,258.5 C 156.495,258.294 159.162,258.96 161.5,260.5C 158.572,260.435 155.905,259.768 153.5,258.5 Z"/></g>
<g><path style="opacity:0.407" fill="#45b95f" d="M 185.5,258.5 C 186.167,258.5 186.833,258.5 187.5,258.5C 190.5,258.5 193.5,258.5 196.5,258.5C 193.423,259.856 190.09,260.689 186.5,261C 178.323,261.823 170.323,261.656 162.5,260.5C 169.841,260.666 177.174,260.5 184.5,260C 185.056,259.617 185.389,259.117 185.5,258.5 Z"/></g>
<g><path style="opacity:0.424" fill="#5bab67" d="M 87.5,258.5 C 87.2627,259.791 87.596,260.791 88.5,261.5C 89.5,261.5 90.5,261.5 91.5,261.5C 87.2471,264.56 85.9138,263.56 87.5,258.5 Z"/></g>
</svg>
